<mxfile host="Electron" agent="Mozilla/5.0 (Windows NT 10.0; Win64; x64) AppleWebKit/537.36 (KHTML, like Gecko) draw.io/24.2.5 Chrome/120.0.6099.109 Electron/28.1.0 Safari/537.36" modified="2024-11-14T08:24:42.263Z" etag="ElPEallEYw5AVNfom2U7" version="24.2.5" type="device" pages="5">
  <diagram id="C5RBs43oDa-KdzZeNtuy" name="Логическая">
    <mxGraphModel dx="1761" dy="611" grid="1" gridSize="10" guides="1" tooltips="1" connect="1" arrows="1" fold="1" page="1" pageScale="1" pageWidth="827" pageHeight="1169" math="0" shadow="0">
      <root>
        <mxCell id="WIyWlLk6GJQsqaUBKTNV-0" />
        <mxCell id="WIyWlLk6GJQsqaUBKTNV-1" parent="WIyWlLk6GJQsqaUBKTNV-0" />
        <mxCell id="zkfFHV4jXpPFQw0GAbJ--0" value="OutputFormater" style="swimlane;fontStyle=4;align=center;verticalAlign=top;childLayout=stackLayout;horizontal=1;startSize=26;horizontalStack=0;resizeParent=1;resizeLast=0;collapsible=1;marginBottom=0;rounded=0;shadow=0;strokeWidth=1;" parent="WIyWlLk6GJQsqaUBKTNV-1" vertex="1">
          <mxGeometry x="800" y="430" width="300" height="150" as="geometry">
            <mxRectangle x="230" y="140" width="160" height="26" as="alternateBounds" />
          </mxGeometry>
        </mxCell>
        <mxCell id="zkfFHV4jXpPFQw0GAbJ--1" value="&#xa;&#xa;&#xa;&#xa;&#xa;+formatInfo(program:Program):" style="text;align=left;verticalAlign=top;spacingLeft=4;spacingRight=4;overflow=hidden;rotatable=0;points=[[0,0.5],[1,0.5]];portConstraint=eastwest;" parent="zkfFHV4jXpPFQw0GAbJ--0" vertex="1">
          <mxGeometry y="26" width="300" height="124" as="geometry" />
        </mxCell>
        <mxCell id="aK3R6qcnJXS5-ai5hLN0-7" value="" style="endArrow=none;html=1;rounded=0;exitX=0;exitY=0.5;exitDx=0;exitDy=0;entryX=1;entryY=0.5;entryDx=0;entryDy=0;" parent="zkfFHV4jXpPFQw0GAbJ--0" source="zkfFHV4jXpPFQw0GAbJ--1" target="zkfFHV4jXpPFQw0GAbJ--1" edge="1">
          <mxGeometry width="50" height="50" relative="1" as="geometry">
            <mxPoint x="100" y="100" as="sourcePoint" />
            <mxPoint x="150" y="50" as="targetPoint" />
          </mxGeometry>
        </mxCell>
        <mxCell id="aK3R6qcnJXS5-ai5hLN0-1" value="InputVideo" style="swimlane;fontStyle=1;align=center;verticalAlign=top;childLayout=stackLayout;horizontal=1;startSize=26;horizontalStack=0;resizeParent=1;resizeLast=0;collapsible=1;marginBottom=0;rounded=0;shadow=0;strokeWidth=1;" parent="WIyWlLk6GJQsqaUBKTNV-1" vertex="1">
          <mxGeometry x="230" y="50" width="200" height="150" as="geometry">
            <mxRectangle x="230" y="140" width="160" height="26" as="alternateBounds" />
          </mxGeometry>
        </mxCell>
        <mxCell id="aK3R6qcnJXS5-ai5hLN0-2" value="-frame:Frame&#xa;-VideoFile:Video&#xa;&#xa;+loadFrame(Frame:frame) bool&#xa;+loadVideo(Video:videoFile) bool" style="text;align=left;verticalAlign=top;spacingLeft=4;spacingRight=4;overflow=hidden;rotatable=0;points=[[0,0.5],[1,0.5]];portConstraint=eastwest;" parent="aK3R6qcnJXS5-ai5hLN0-1" vertex="1">
          <mxGeometry y="26" width="200" height="124" as="geometry" />
        </mxCell>
        <mxCell id="aK3R6qcnJXS5-ai5hLN0-5" value="" style="endArrow=none;html=1;rounded=0;entryX=1;entryY=0.5;entryDx=0;entryDy=0;exitX=0;exitY=0.5;exitDx=0;exitDy=0;" parent="WIyWlLk6GJQsqaUBKTNV-1" source="aK3R6qcnJXS5-ai5hLN0-1" target="aK3R6qcnJXS5-ai5hLN0-1" edge="1">
          <mxGeometry width="50" height="50" relative="1" as="geometry">
            <mxPoint x="290" y="370" as="sourcePoint" />
            <mxPoint x="340" y="320" as="targetPoint" />
          </mxGeometry>
        </mxCell>
        <mxCell id="aK3R6qcnJXS5-ai5hLN0-8" value="ProgramDatabase" style="swimlane;fontStyle=0;align=center;verticalAlign=top;childLayout=stackLayout;horizontal=1;startSize=26;horizontalStack=0;resizeParent=1;resizeLast=0;collapsible=1;marginBottom=0;rounded=0;shadow=0;strokeWidth=1;" parent="WIyWlLk6GJQsqaUBKTNV-1" vertex="1">
          <mxGeometry x="50" y="670" width="300" height="150" as="geometry">
            <mxRectangle x="230" y="140" width="160" height="26" as="alternateBounds" />
          </mxGeometry>
        </mxCell>
        <mxCell id="aK3R6qcnJXS5-ai5hLN0-9" value="-programs:List&lt;Program&gt;&#xa;&#xa;&#xa;&#xa;&#xa;+GetProgram():program" style="text;align=left;verticalAlign=top;spacingLeft=4;spacingRight=4;overflow=hidden;rotatable=0;points=[[0,0.5],[1,0.5]];portConstraint=eastwest;" parent="aK3R6qcnJXS5-ai5hLN0-8" vertex="1">
          <mxGeometry y="26" width="300" height="124" as="geometry" />
        </mxCell>
        <mxCell id="aK3R6qcnJXS5-ai5hLN0-10" value="" style="endArrow=none;html=1;rounded=0;exitX=0;exitY=0.5;exitDx=0;exitDy=0;entryX=1;entryY=0.5;entryDx=0;entryDy=0;" parent="aK3R6qcnJXS5-ai5hLN0-8" source="aK3R6qcnJXS5-ai5hLN0-9" target="aK3R6qcnJXS5-ai5hLN0-9" edge="1">
          <mxGeometry width="50" height="50" relative="1" as="geometry">
            <mxPoint x="100" y="100" as="sourcePoint" />
            <mxPoint x="150" y="50" as="targetPoint" />
          </mxGeometry>
        </mxCell>
        <mxCell id="aK3R6qcnJXS5-ai5hLN0-11" value="program" style="swimlane;fontStyle=1;align=center;verticalAlign=top;childLayout=stackLayout;horizontal=1;startSize=26;horizontalStack=0;resizeParent=1;resizeLast=0;collapsible=1;marginBottom=0;rounded=0;shadow=0;strokeWidth=1;" parent="WIyWlLk6GJQsqaUBKTNV-1" vertex="1">
          <mxGeometry x="400" y="670" width="200" height="150" as="geometry">
            <mxRectangle x="230" y="140" width="160" height="26" as="alternateBounds" />
          </mxGeometry>
        </mxCell>
        <mxCell id="aK3R6qcnJXS5-ai5hLN0-12" value="-title:String&#xa;-channel: String&#xa;-link:String&#xa;&#xa;+GetInfo()" style="text;align=left;verticalAlign=top;spacingLeft=4;spacingRight=4;overflow=hidden;rotatable=0;points=[[0,0.5],[1,0.5]];portConstraint=eastwest;" parent="aK3R6qcnJXS5-ai5hLN0-11" vertex="1">
          <mxGeometry y="26" width="200" height="124" as="geometry" />
        </mxCell>
        <mxCell id="aK3R6qcnJXS5-ai5hLN0-13" value="" style="endArrow=none;html=1;rounded=0;entryX=1;entryY=0.5;entryDx=0;entryDy=0;exitX=0;exitY=0.5;exitDx=0;exitDy=0;" parent="aK3R6qcnJXS5-ai5hLN0-11" source="aK3R6qcnJXS5-ai5hLN0-12" target="aK3R6qcnJXS5-ai5hLN0-12" edge="1">
          <mxGeometry width="50" height="50" relative="1" as="geometry">
            <mxPoint x="180" y="-210" as="sourcePoint" />
            <mxPoint x="230" y="-260" as="targetPoint" />
          </mxGeometry>
        </mxCell>
        <mxCell id="aK3R6qcnJXS5-ai5hLN0-27" value="Refactorer" style="swimlane;fontStyle=1;align=center;verticalAlign=top;childLayout=stackLayout;horizontal=1;startSize=26;horizontalStack=0;resizeParent=1;resizeLast=0;collapsible=1;marginBottom=0;rounded=0;shadow=0;strokeWidth=1;" parent="WIyWlLk6GJQsqaUBKTNV-1" vertex="1">
          <mxGeometry x="570" y="110" width="280" height="150" as="geometry">
            <mxRectangle x="230" y="140" width="160" height="26" as="alternateBounds" />
          </mxGeometry>
        </mxCell>
        <mxCell id="aK3R6qcnJXS5-ai5hLN0-35" value="" style="endArrow=none;html=1;rounded=0;exitX=0;exitY=0.5;exitDx=0;exitDy=0;entryX=1;entryY=0.5;entryDx=0;entryDy=0;" parent="aK3R6qcnJXS5-ai5hLN0-27" source="aK3R6qcnJXS5-ai5hLN0-28" target="aK3R6qcnJXS5-ai5hLN0-28" edge="1">
          <mxGeometry width="50" height="50" relative="1" as="geometry">
            <mxPoint y="70" as="sourcePoint" />
            <mxPoint x="50" y="20" as="targetPoint" />
          </mxGeometry>
        </mxCell>
        <mxCell id="aK3R6qcnJXS5-ai5hLN0-28" value="-frames:refactoredFrames&#xa;&#xa;&#xa;&#xa;+refarctorFrame(frame:Frame)RefactoredFrames&#xa; " style="text;align=left;verticalAlign=top;spacingLeft=4;spacingRight=4;overflow=hidden;rotatable=0;points=[[0,0.5],[1,0.5]];portConstraint=eastwest;" parent="aK3R6qcnJXS5-ai5hLN0-27" vertex="1">
          <mxGeometry y="26" width="280" height="124" as="geometry" />
        </mxCell>
        <mxCell id="aK3R6qcnJXS5-ai5hLN0-32" value="RefactoredFrames" style="swimlane;fontStyle=1;align=center;verticalAlign=top;childLayout=stackLayout;horizontal=1;startSize=26;horizontalStack=0;resizeParent=1;resizeLast=0;collapsible=1;marginBottom=0;rounded=0;shadow=0;strokeWidth=1;" parent="WIyWlLk6GJQsqaUBKTNV-1" vertex="1">
          <mxGeometry x="910" y="110" width="200" height="150" as="geometry">
            <mxRectangle x="230" y="140" width="160" height="26" as="alternateBounds" />
          </mxGeometry>
        </mxCell>
        <mxCell id="aK3R6qcnJXS5-ai5hLN0-33" value="-refactoredFrames:List&lt;Frame&gt;&#xa;&#xa;&#xa;&#xa;+getFrames():List&lt;Frame&gt;" style="text;align=left;verticalAlign=top;spacingLeft=4;spacingRight=4;overflow=hidden;rotatable=0;points=[[0,0.5],[1,0.5]];portConstraint=eastwest;" parent="aK3R6qcnJXS5-ai5hLN0-32" vertex="1">
          <mxGeometry y="26" width="200" height="124" as="geometry" />
        </mxCell>
        <mxCell id="aK3R6qcnJXS5-ai5hLN0-34" value="" style="endArrow=none;html=1;rounded=0;exitX=0.016;exitY=0.357;exitDx=0;exitDy=0;exitPerimeter=0;" parent="aK3R6qcnJXS5-ai5hLN0-32" source="aK3R6qcnJXS5-ai5hLN0-33" edge="1">
          <mxGeometry width="50" height="50" relative="1" as="geometry">
            <mxPoint x="50" y="-60" as="sourcePoint" />
            <mxPoint x="197" y="70" as="targetPoint" />
          </mxGeometry>
        </mxCell>
        <mxCell id="aK3R6qcnJXS5-ai5hLN0-41" value="TagSerch" style="swimlane;fontStyle=1;align=center;verticalAlign=top;childLayout=stackLayout;horizontal=1;startSize=26;horizontalStack=0;resizeParent=1;resizeLast=0;collapsible=1;marginBottom=0;rounded=0;shadow=0;strokeWidth=1;" parent="WIyWlLk6GJQsqaUBKTNV-1" vertex="1">
          <mxGeometry x="-310" y="690" width="280" height="150" as="geometry">
            <mxRectangle x="230" y="140" width="160" height="26" as="alternateBounds" />
          </mxGeometry>
        </mxCell>
        <mxCell id="aK3R6qcnJXS5-ai5hLN0-42" value="" style="endArrow=none;html=1;rounded=0;exitX=0;exitY=0.5;exitDx=0;exitDy=0;entryX=1;entryY=0.5;entryDx=0;entryDy=0;" parent="aK3R6qcnJXS5-ai5hLN0-41" source="aK3R6qcnJXS5-ai5hLN0-43" target="aK3R6qcnJXS5-ai5hLN0-43" edge="1">
          <mxGeometry width="50" height="50" relative="1" as="geometry">
            <mxPoint y="70" as="sourcePoint" />
            <mxPoint x="50" y="20" as="targetPoint" />
          </mxGeometry>
        </mxCell>
        <mxCell id="aK3R6qcnJXS5-ai5hLN0-43" value="-tags:List&lt;tags&gt;&#xa;&#xa;&#xa;&#xa;+searchMathesTags(tag:Tags):List&lt;tags&gt; " style="text;align=left;verticalAlign=top;spacingLeft=4;spacingRight=4;overflow=hidden;rotatable=0;points=[[0,0.5],[1,0.5]];portConstraint=eastwest;" parent="aK3R6qcnJXS5-ai5hLN0-41" vertex="1">
          <mxGeometry y="26" width="280" height="124" as="geometry" />
        </mxCell>
        <mxCell id="ObJLuDKZ_WDkVelha7CW-0" style="edgeStyle=orthogonalEdgeStyle;rounded=0;orthogonalLoop=1;jettySize=auto;html=1;endArrow=diamondThin;endFill=0;" parent="WIyWlLk6GJQsqaUBKTNV-1" source="aK3R6qcnJXS5-ai5hLN0-44" target="aK3R6qcnJXS5-ai5hLN0-43" edge="1">
          <mxGeometry relative="1" as="geometry" />
        </mxCell>
        <mxCell id="aK3R6qcnJXS5-ai5hLN0-44" value="tag" style="swimlane;fontStyle=1;align=center;verticalAlign=top;childLayout=stackLayout;horizontal=1;startSize=26;horizontalStack=0;resizeParent=1;resizeLast=0;collapsible=1;marginBottom=0;rounded=0;shadow=0;strokeWidth=1;" parent="WIyWlLk6GJQsqaUBKTNV-1" vertex="1">
          <mxGeometry x="-430" y="510" width="200" height="150" as="geometry">
            <mxRectangle x="230" y="140" width="160" height="26" as="alternateBounds" />
          </mxGeometry>
        </mxCell>
        <mxCell id="aK3R6qcnJXS5-ai5hLN0-45" value="-tag:float&#xa;&#xa;&#xa;&#xa;+getTag():tag" style="text;align=left;verticalAlign=top;spacingLeft=4;spacingRight=4;overflow=hidden;rotatable=0;points=[[0,0.5],[1,0.5]];portConstraint=eastwest;" parent="aK3R6qcnJXS5-ai5hLN0-44" vertex="1">
          <mxGeometry y="26" width="200" height="124" as="geometry" />
        </mxCell>
        <mxCell id="aK3R6qcnJXS5-ai5hLN0-46" value="" style="endArrow=none;html=1;rounded=0;exitX=0.016;exitY=0.357;exitDx=0;exitDy=0;exitPerimeter=0;" parent="aK3R6qcnJXS5-ai5hLN0-44" source="aK3R6qcnJXS5-ai5hLN0-45" edge="1">
          <mxGeometry width="50" height="50" relative="1" as="geometry">
            <mxPoint x="50" y="-60" as="sourcePoint" />
            <mxPoint x="197" y="70" as="targetPoint" />
          </mxGeometry>
        </mxCell>
        <mxCell id="aK3R6qcnJXS5-ai5hLN0-48" value="MLModel" style="swimlane;fontStyle=1;align=center;verticalAlign=top;childLayout=stackLayout;horizontal=1;startSize=26;horizontalStack=0;resizeParent=1;resizeLast=0;collapsible=1;marginBottom=0;rounded=0;shadow=0;strokeWidth=1;" parent="WIyWlLk6GJQsqaUBKTNV-1" vertex="1">
          <mxGeometry x="-80" y="420" width="280" height="150" as="geometry">
            <mxRectangle x="230" y="140" width="160" height="26" as="alternateBounds" />
          </mxGeometry>
        </mxCell>
        <mxCell id="aK3R6qcnJXS5-ai5hLN0-49" value="" style="endArrow=none;html=1;rounded=0;exitX=0;exitY=0.5;exitDx=0;exitDy=0;entryX=1;entryY=0.5;entryDx=0;entryDy=0;" parent="aK3R6qcnJXS5-ai5hLN0-48" source="aK3R6qcnJXS5-ai5hLN0-50" target="aK3R6qcnJXS5-ai5hLN0-50" edge="1">
          <mxGeometry width="50" height="50" relative="1" as="geometry">
            <mxPoint y="70" as="sourcePoint" />
            <mxPoint x="50" y="20" as="targetPoint" />
          </mxGeometry>
        </mxCell>
        <mxCell id="aK3R6qcnJXS5-ai5hLN0-50" value="&#xa;&#xa;&#xa;&#xa;+searchMatchesTags(tag:Tags):program " style="text;align=left;verticalAlign=top;spacingLeft=4;spacingRight=4;overflow=hidden;rotatable=0;points=[[0,0.5],[1,0.5]];portConstraint=eastwest;" parent="aK3R6qcnJXS5-ai5hLN0-48" vertex="1">
          <mxGeometry y="26" width="280" height="124" as="geometry" />
        </mxCell>
        <mxCell id="aK3R6qcnJXS5-ai5hLN0-52" style="edgeStyle=orthogonalEdgeStyle;rounded=0;orthogonalLoop=1;jettySize=auto;html=1;entryX=0;entryY=0.5;entryDx=0;entryDy=0;endArrow=none;endFill=0;startArrow=diamondThin;startFill=0;" parent="WIyWlLk6GJQsqaUBKTNV-1" source="aK3R6qcnJXS5-ai5hLN0-9" target="aK3R6qcnJXS5-ai5hLN0-12" edge="1">
          <mxGeometry relative="1" as="geometry" />
        </mxCell>
        <mxCell id="aK3R6qcnJXS5-ai5hLN0-54" style="edgeStyle=orthogonalEdgeStyle;rounded=0;orthogonalLoop=1;jettySize=auto;html=1;" parent="WIyWlLk6GJQsqaUBKTNV-1" source="aK3R6qcnJXS5-ai5hLN0-50" target="aK3R6qcnJXS5-ai5hLN0-8" edge="1">
          <mxGeometry relative="1" as="geometry">
            <Array as="points">
              <mxPoint x="160" y="690" />
            </Array>
          </mxGeometry>
        </mxCell>
        <mxCell id="aK3R6qcnJXS5-ai5hLN0-64" value="view" style="swimlane;fontStyle=4;align=center;verticalAlign=top;childLayout=stackLayout;horizontal=1;startSize=26;horizontalStack=0;resizeParent=1;resizeLast=0;collapsible=1;marginBottom=0;rounded=0;shadow=0;strokeWidth=1;" parent="WIyWlLk6GJQsqaUBKTNV-1" vertex="1">
          <mxGeometry x="420" y="430" width="300" height="150" as="geometry">
            <mxRectangle x="230" y="140" width="160" height="26" as="alternateBounds" />
          </mxGeometry>
        </mxCell>
        <mxCell id="aK3R6qcnJXS5-ai5hLN0-65" value="-output:outputFormater&#xa;&#xa;&#xa;&#xa;+show()" style="text;align=left;verticalAlign=top;spacingLeft=4;spacingRight=4;overflow=hidden;rotatable=0;points=[[0,0.5],[1,0.5]];portConstraint=eastwest;" parent="aK3R6qcnJXS5-ai5hLN0-64" vertex="1">
          <mxGeometry y="26" width="300" height="124" as="geometry" />
        </mxCell>
        <mxCell id="aK3R6qcnJXS5-ai5hLN0-66" value="" style="endArrow=none;html=1;rounded=0;exitX=0;exitY=0.5;exitDx=0;exitDy=0;entryX=1;entryY=0.5;entryDx=0;entryDy=0;" parent="aK3R6qcnJXS5-ai5hLN0-64" source="aK3R6qcnJXS5-ai5hLN0-65" target="aK3R6qcnJXS5-ai5hLN0-65" edge="1">
          <mxGeometry width="50" height="50" relative="1" as="geometry">
            <mxPoint x="100" y="100" as="sourcePoint" />
            <mxPoint x="150" y="50" as="targetPoint" />
          </mxGeometry>
        </mxCell>
        <mxCell id="7gZQM2BUCq214TDgTtXk-13" style="edgeStyle=orthogonalEdgeStyle;rounded=0;orthogonalLoop=1;jettySize=auto;html=1;" parent="WIyWlLk6GJQsqaUBKTNV-1" source="7gZQM2BUCq214TDgTtXk-4" target="aK3R6qcnJXS5-ai5hLN0-1" edge="1">
          <mxGeometry relative="1" as="geometry" />
        </mxCell>
        <mxCell id="7gZQM2BUCq214TDgTtXk-23" style="edgeStyle=orthogonalEdgeStyle;rounded=0;orthogonalLoop=1;jettySize=auto;html=1;entryX=0;entryY=0.5;entryDx=0;entryDy=0;" parent="WIyWlLk6GJQsqaUBKTNV-1" source="7gZQM2BUCq214TDgTtXk-4" target="aK3R6qcnJXS5-ai5hLN0-65" edge="1">
          <mxGeometry relative="1" as="geometry" />
        </mxCell>
        <mxCell id="7gZQM2BUCq214TDgTtXk-4" value="Controller" style="swimlane;fontStyle=1;align=center;verticalAlign=top;childLayout=stackLayout;horizontal=1;startSize=26;horizontalStack=0;resizeParent=1;resizeLast=0;collapsible=1;marginBottom=0;rounded=0;shadow=0;strokeWidth=1;" parent="WIyWlLk6GJQsqaUBKTNV-1" vertex="1">
          <mxGeometry x="190" y="250" width="280" height="150" as="geometry">
            <mxRectangle x="230" y="140" width="160" height="26" as="alternateBounds" />
          </mxGeometry>
        </mxCell>
        <mxCell id="7gZQM2BUCq214TDgTtXk-5" value="" style="endArrow=none;html=1;rounded=0;exitX=0;exitY=0.5;exitDx=0;exitDy=0;entryX=1;entryY=0.5;entryDx=0;entryDy=0;" parent="7gZQM2BUCq214TDgTtXk-4" source="7gZQM2BUCq214TDgTtXk-6" target="7gZQM2BUCq214TDgTtXk-6" edge="1">
          <mxGeometry width="50" height="50" relative="1" as="geometry">
            <mxPoint y="70" as="sourcePoint" />
            <mxPoint x="50" y="20" as="targetPoint" />
          </mxGeometry>
        </mxCell>
        <mxCell id="7gZQM2BUCq214TDgTtXk-6" value="&#xa;&#xa;&#xa;&#xa;+main()" style="text;align=left;verticalAlign=top;spacingLeft=4;spacingRight=4;overflow=hidden;rotatable=0;points=[[0,0.5],[1,0.5]];portConstraint=eastwest;" parent="7gZQM2BUCq214TDgTtXk-4" vertex="1">
          <mxGeometry y="26" width="280" height="124" as="geometry" />
        </mxCell>
        <mxCell id="7gZQM2BUCq214TDgTtXk-11" style="edgeStyle=orthogonalEdgeStyle;rounded=0;orthogonalLoop=1;jettySize=auto;html=1;" parent="WIyWlLk6GJQsqaUBKTNV-1" source="7gZQM2BUCq214TDgTtXk-6" target="aK3R6qcnJXS5-ai5hLN0-28" edge="1">
          <mxGeometry relative="1" as="geometry" />
        </mxCell>
        <mxCell id="7gZQM2BUCq214TDgTtXk-14" style="edgeStyle=orthogonalEdgeStyle;rounded=0;orthogonalLoop=1;jettySize=auto;html=1;" parent="WIyWlLk6GJQsqaUBKTNV-1" source="aK3R6qcnJXS5-ai5hLN0-50" target="aK3R6qcnJXS5-ai5hLN0-41" edge="1">
          <mxGeometry relative="1" as="geometry" />
        </mxCell>
        <mxCell id="7gZQM2BUCq214TDgTtXk-15" style="edgeStyle=orthogonalEdgeStyle;rounded=0;orthogonalLoop=1;jettySize=auto;html=1;" parent="WIyWlLk6GJQsqaUBKTNV-1" source="7gZQM2BUCq214TDgTtXk-6" target="aK3R6qcnJXS5-ai5hLN0-48" edge="1">
          <mxGeometry relative="1" as="geometry" />
        </mxCell>
        <mxCell id="7gZQM2BUCq214TDgTtXk-21" style="edgeStyle=orthogonalEdgeStyle;rounded=0;orthogonalLoop=1;jettySize=auto;html=1;endArrow=none;endFill=0;startArrow=diamondThin;startFill=1;" parent="WIyWlLk6GJQsqaUBKTNV-1" source="aK3R6qcnJXS5-ai5hLN0-64" target="zkfFHV4jXpPFQw0GAbJ--0" edge="1">
          <mxGeometry relative="1" as="geometry" />
        </mxCell>
        <mxCell id="7gZQM2BUCq214TDgTtXk-24" style="edgeStyle=orthogonalEdgeStyle;rounded=0;orthogonalLoop=1;jettySize=auto;html=1;entryX=0;entryY=0.5;entryDx=0;entryDy=0;" parent="WIyWlLk6GJQsqaUBKTNV-1" source="aK3R6qcnJXS5-ai5hLN0-28" target="aK3R6qcnJXS5-ai5hLN0-33" edge="1">
          <mxGeometry relative="1" as="geometry" />
        </mxCell>
      </root>
    </mxGraphModel>
  </diagram>
  <diagram id="uPi_lY4iS9Lp94eO7Qqx" name="Последовательности">
    <mxGraphModel dx="1687" dy="993" grid="1" gridSize="10" guides="1" tooltips="1" connect="1" arrows="1" fold="1" page="1" pageScale="1" pageWidth="827" pageHeight="1169" math="0" shadow="0">
      <root>
        <mxCell id="0" />
        <mxCell id="1" parent="0" />
        <mxCell id="wc_7x4rBT8aoIeLALj2p-14" value="пользовательский&lt;div&gt;ввод&lt;/div&gt;" style="text;html=1;align=center;verticalAlign=middle;resizable=0;points=[];autosize=1;strokeColor=none;fillColor=none;" parent="1" vertex="1">
          <mxGeometry x="190" y="210" width="120" height="40" as="geometry" />
        </mxCell>
        <mxCell id="wc_7x4rBT8aoIeLALj2p-18" value="передача видео/&lt;div&gt;изображения&lt;/div&gt;" style="text;html=1;align=center;verticalAlign=middle;resizable=0;points=[];autosize=1;strokeColor=none;fillColor=none;" parent="1" vertex="1">
          <mxGeometry x="310" y="260" width="120" height="40" as="geometry" />
        </mxCell>
        <mxCell id="wc_7x4rBT8aoIeLALj2p-22" value="Интерфейс загрузки видео" style="shape=umlLifeline;perimeter=lifelinePerimeter;whiteSpace=wrap;html=1;container=1;dropTarget=0;collapsible=0;recursiveResize=0;outlineConnect=0;portConstraint=eastwest;newEdgeStyle={&quot;curved&quot;:0,&quot;rounded&quot;:0};" parent="1" vertex="1">
          <mxGeometry x="250" y="140" width="100" height="1000" as="geometry" />
        </mxCell>
        <mxCell id="vO9cLvTChEzuH7ahwpcy-7" value="" style="html=1;points=[[0,0,0,0,5],[0,1,0,0,-5],[1,0,0,0,5],[1,1,0,0,-5]];perimeter=orthogonalPerimeter;outlineConnect=0;targetShapes=umlLifeline;portConstraint=eastwest;newEdgeStyle={&quot;curved&quot;:0,&quot;rounded&quot;:0};" parent="wc_7x4rBT8aoIeLALj2p-22" vertex="1">
          <mxGeometry x="45" y="100" width="10" height="70" as="geometry" />
        </mxCell>
        <mxCell id="wc_7x4rBT8aoIeLALj2p-23" value="" style="shape=umlLifeline;perimeter=lifelinePerimeter;whiteSpace=wrap;html=1;container=1;dropTarget=0;collapsible=0;recursiveResize=0;outlineConnect=0;portConstraint=eastwest;newEdgeStyle={&quot;curved&quot;:0,&quot;rounded&quot;:0};participant=umlActor;" parent="1" vertex="1">
          <mxGeometry x="180" y="140" width="20" height="990" as="geometry" />
        </mxCell>
        <mxCell id="wc_7x4rBT8aoIeLALj2p-24" value="" style="html=1;points=[[0,0,0,0,5],[0,1,0,0,-5],[1,0,0,0,5],[1,1,0,0,-5]];perimeter=orthogonalPerimeter;outlineConnect=0;targetShapes=umlLifeline;portConstraint=eastwest;newEdgeStyle={&quot;curved&quot;:0,&quot;rounded&quot;:0};" parent="wc_7x4rBT8aoIeLALj2p-23" vertex="1">
          <mxGeometry x="5" y="40" width="10" height="80" as="geometry" />
        </mxCell>
        <mxCell id="wc_7x4rBT8aoIeLALj2p-25" style="edgeStyle=orthogonalEdgeStyle;rounded=0;orthogonalLoop=1;jettySize=auto;html=1;curved=0;" parent="1" source="wc_7x4rBT8aoIeLALj2p-24" target="wc_7x4rBT8aoIeLALj2p-22" edge="1">
          <mxGeometry relative="1" as="geometry">
            <Array as="points">
              <mxPoint x="210" y="250" />
              <mxPoint x="210" y="250" />
            </Array>
          </mxGeometry>
        </mxCell>
        <mxCell id="wc_7x4rBT8aoIeLALj2p-26" value="Компоненты для переработки" style="shape=umlLifeline;perimeter=lifelinePerimeter;whiteSpace=wrap;html=1;container=1;dropTarget=0;collapsible=0;recursiveResize=0;outlineConnect=0;portConstraint=eastwest;newEdgeStyle={&quot;curved&quot;:0,&quot;rounded&quot;:0};" parent="1" vertex="1">
          <mxGeometry x="380" y="140" width="100" height="1000" as="geometry" />
        </mxCell>
        <mxCell id="wc_7x4rBT8aoIeLALj2p-15" value="" style="html=1;points=[[0,0,0,0,5],[0,1,0,0,-5],[1,0,0,0,5],[1,1,0,0,-5]];perimeter=orthogonalPerimeter;outlineConnect=0;targetShapes=umlLifeline;portConstraint=eastwest;newEdgeStyle={&quot;curved&quot;:0,&quot;rounded&quot;:0};" parent="wc_7x4rBT8aoIeLALj2p-26" vertex="1">
          <mxGeometry x="45" y="160" width="10" height="80" as="geometry" />
        </mxCell>
        <mxCell id="wc_7x4rBT8aoIeLALj2p-27" style="edgeStyle=orthogonalEdgeStyle;rounded=0;orthogonalLoop=1;jettySize=auto;html=1;curved=0;exitX=1;exitY=1;exitDx=0;exitDy=-5;exitPerimeter=0;entryX=0;entryY=0;entryDx=0;entryDy=5;entryPerimeter=0;" parent="1" source="vO9cLvTChEzuH7ahwpcy-7" target="wc_7x4rBT8aoIeLALj2p-15" edge="1">
          <mxGeometry relative="1" as="geometry" />
        </mxCell>
        <mxCell id="wc_7x4rBT8aoIeLALj2p-28" value="Алгоритм извлечения признаков" style="shape=umlLifeline;perimeter=lifelinePerimeter;whiteSpace=wrap;html=1;container=1;dropTarget=0;collapsible=0;recursiveResize=0;outlineConnect=0;portConstraint=eastwest;newEdgeStyle={&quot;curved&quot;:0,&quot;rounded&quot;:0};" parent="1" vertex="1">
          <mxGeometry x="500" y="140" width="100" height="1000" as="geometry" />
        </mxCell>
        <mxCell id="wc_7x4rBT8aoIeLALj2p-34" value="" style="html=1;points=[[0,0,0,0,5],[0,1,0,0,-5],[1,0,0,0,5],[1,1,0,0,-5]];perimeter=orthogonalPerimeter;outlineConnect=0;targetShapes=umlLifeline;portConstraint=eastwest;newEdgeStyle={&quot;curved&quot;:0,&quot;rounded&quot;:0};" parent="wc_7x4rBT8aoIeLALj2p-28" vertex="1">
          <mxGeometry x="45" y="230" width="10" height="80" as="geometry" />
        </mxCell>
        <mxCell id="wc_7x4rBT8aoIeLALj2p-29" value="Модель МО" style="shape=umlLifeline;perimeter=lifelinePerimeter;whiteSpace=wrap;html=1;container=1;dropTarget=0;collapsible=0;recursiveResize=0;outlineConnect=0;portConstraint=eastwest;newEdgeStyle={&quot;curved&quot;:0,&quot;rounded&quot;:0};" parent="1" vertex="1">
          <mxGeometry x="620" y="140" width="100" height="1000" as="geometry" />
        </mxCell>
        <mxCell id="zcTIjvDZYzF_Mct9YhcW-1" value="" style="html=1;points=[[0,0,0,0,5],[0,1,0,0,-5],[1,0,0,0,5],[1,1,0,0,-5]];perimeter=orthogonalPerimeter;outlineConnect=0;targetShapes=umlLifeline;portConstraint=eastwest;newEdgeStyle={&quot;curved&quot;:0,&quot;rounded&quot;:0};" parent="wc_7x4rBT8aoIeLALj2p-29" vertex="1">
          <mxGeometry x="45" y="300" width="10" height="470" as="geometry" />
        </mxCell>
        <mxCell id="wc_7x4rBT8aoIeLALj2p-30" value="Поиск в бд" style="shape=umlLifeline;perimeter=lifelinePerimeter;whiteSpace=wrap;html=1;container=1;dropTarget=0;collapsible=0;recursiveResize=0;outlineConnect=0;portConstraint=eastwest;newEdgeStyle={&quot;curved&quot;:0,&quot;rounded&quot;:0};" parent="1" vertex="1">
          <mxGeometry x="740" y="140" width="100" height="1000" as="geometry" />
        </mxCell>
        <mxCell id="7Z1JYBTyzyKzcb5o9DKq-1" style="edgeStyle=orthogonalEdgeStyle;rounded=0;orthogonalLoop=1;jettySize=auto;html=1;curved=0;exitX=0;exitY=1;exitDx=0;exitDy=-5;exitPerimeter=0;" edge="1" parent="wc_7x4rBT8aoIeLALj2p-30" source="zcTIjvDZYzF_Mct9YhcW-4">
          <mxGeometry relative="1" as="geometry">
            <mxPoint x="-70" y="725.1428571428571" as="targetPoint" />
          </mxGeometry>
        </mxCell>
        <mxCell id="zcTIjvDZYzF_Mct9YhcW-4" value="" style="html=1;points=[[0,0,0,0,5],[0,1,0,0,-5],[1,0,0,0,5],[1,1,0,0,-5]];perimeter=orthogonalPerimeter;outlineConnect=0;targetShapes=umlLifeline;portConstraint=eastwest;newEdgeStyle={&quot;curved&quot;:0,&quot;rounded&quot;:0};" parent="wc_7x4rBT8aoIeLALj2p-30" vertex="1">
          <mxGeometry x="45" y="370" width="10" height="360" as="geometry" />
        </mxCell>
        <mxCell id="wc_7x4rBT8aoIeLALj2p-31" value="БД" style="shape=umlLifeline;perimeter=lifelinePerimeter;whiteSpace=wrap;html=1;container=1;dropTarget=0;collapsible=0;recursiveResize=0;outlineConnect=0;portConstraint=eastwest;newEdgeStyle={&quot;curved&quot;:0,&quot;rounded&quot;:0};" parent="1" vertex="1">
          <mxGeometry x="880" y="140" width="100" height="1000" as="geometry" />
        </mxCell>
        <mxCell id="zcTIjvDZYzF_Mct9YhcW-6" value="" style="html=1;points=[[0,0,0,0,5],[0,1,0,0,-5],[1,0,0,0,5],[1,1,0,0,-5]];perimeter=orthogonalPerimeter;outlineConnect=0;targetShapes=umlLifeline;portConstraint=eastwest;newEdgeStyle={&quot;curved&quot;:0,&quot;rounded&quot;:0};" parent="wc_7x4rBT8aoIeLALj2p-31" vertex="1">
          <mxGeometry x="45" y="400" width="10" height="300" as="geometry" />
        </mxCell>
        <mxCell id="wc_7x4rBT8aoIeLALj2p-32" value="Формирование&lt;div&gt;информации для вывода&lt;/div&gt;" style="shape=umlLifeline;perimeter=lifelinePerimeter;whiteSpace=wrap;html=1;container=1;dropTarget=0;collapsible=0;recursiveResize=0;outlineConnect=0;portConstraint=eastwest;newEdgeStyle={&quot;curved&quot;:0,&quot;rounded&quot;:0};" parent="1" vertex="1">
          <mxGeometry x="1010" y="140" width="100" height="1000" as="geometry" />
        </mxCell>
        <mxCell id="zcTIjvDZYzF_Mct9YhcW-13" value="" style="html=1;points=[[0,0,0,0,5],[0,1,0,0,-5],[1,0,0,0,5],[1,1,0,0,-5]];perimeter=orthogonalPerimeter;outlineConnect=0;targetShapes=umlLifeline;portConstraint=eastwest;newEdgeStyle={&quot;curved&quot;:0,&quot;rounded&quot;:0};" parent="wc_7x4rBT8aoIeLALj2p-32" vertex="1">
          <mxGeometry x="45" y="750" width="10" height="80" as="geometry" />
        </mxCell>
        <mxCell id="wc_7x4rBT8aoIeLALj2p-33" value="Интерфейс отображения результата" style="shape=umlLifeline;perimeter=lifelinePerimeter;whiteSpace=wrap;html=1;container=1;dropTarget=0;collapsible=0;recursiveResize=0;outlineConnect=0;portConstraint=eastwest;newEdgeStyle={&quot;curved&quot;:0,&quot;rounded&quot;:0};" parent="1" vertex="1">
          <mxGeometry x="1141" y="140" width="100" height="1000" as="geometry" />
        </mxCell>
        <mxCell id="wc_7x4rBT8aoIeLALj2p-35" style="edgeStyle=orthogonalEdgeStyle;rounded=0;orthogonalLoop=1;jettySize=auto;html=1;curved=0;exitX=1;exitY=1;exitDx=0;exitDy=-5;exitPerimeter=0;entryX=0;entryY=0;entryDx=0;entryDy=5;entryPerimeter=0;" parent="1" source="wc_7x4rBT8aoIeLALj2p-15" target="wc_7x4rBT8aoIeLALj2p-34" edge="1">
          <mxGeometry relative="1" as="geometry" />
        </mxCell>
        <mxCell id="wc_7x4rBT8aoIeLALj2p-37" value="передача обработанных&lt;div&gt;данных&lt;/div&gt;" style="text;html=1;align=center;verticalAlign=middle;resizable=0;points=[];autosize=1;strokeColor=none;fillColor=none;" parent="1" vertex="1">
          <mxGeometry x="420" y="330" width="160" height="40" as="geometry" />
        </mxCell>
        <mxCell id="zcTIjvDZYzF_Mct9YhcW-2" style="edgeStyle=orthogonalEdgeStyle;rounded=0;orthogonalLoop=1;jettySize=auto;html=1;curved=0;exitX=1;exitY=1;exitDx=0;exitDy=-5;exitPerimeter=0;" parent="1" source="wc_7x4rBT8aoIeLALj2p-34" target="wc_7x4rBT8aoIeLALj2p-29" edge="1">
          <mxGeometry relative="1" as="geometry">
            <Array as="points">
              <mxPoint x="650" y="445" />
              <mxPoint x="650" y="445" />
            </Array>
          </mxGeometry>
        </mxCell>
        <mxCell id="zcTIjvDZYzF_Mct9YhcW-3" value="Передача признаков&lt;div&gt;&amp;nbsp;для модели МО&lt;/div&gt;" style="edgeLabel;html=1;align=center;verticalAlign=middle;resizable=0;points=[];" parent="1" vertex="1" connectable="0">
          <mxGeometry x="610" y="420" as="geometry" />
        </mxCell>
        <mxCell id="zcTIjvDZYzF_Mct9YhcW-5" style="edgeStyle=orthogonalEdgeStyle;rounded=0;orthogonalLoop=1;jettySize=auto;html=1;curved=0;exitX=1;exitY=1;exitDx=0;exitDy=-5;exitPerimeter=0;entryX=0;entryY=0;entryDx=0;entryDy=5;entryPerimeter=0;" parent="1" source="zcTIjvDZYzF_Mct9YhcW-1" target="zcTIjvDZYzF_Mct9YhcW-4" edge="1">
          <mxGeometry relative="1" as="geometry">
            <Array as="points">
              <mxPoint x="675" y="515" />
            </Array>
          </mxGeometry>
        </mxCell>
        <mxCell id="zcTIjvDZYzF_Mct9YhcW-7" value="Запрос от модели" style="edgeLabel;html=1;align=center;verticalAlign=middle;resizable=0;points=[];" parent="1" vertex="1" connectable="0">
          <mxGeometry x="729.9996212570037" y="500.0033497304789" as="geometry" />
        </mxCell>
        <mxCell id="zcTIjvDZYzF_Mct9YhcW-8" style="edgeStyle=orthogonalEdgeStyle;rounded=0;orthogonalLoop=1;jettySize=auto;html=1;curved=0;exitX=1;exitY=0;exitDx=0;exitDy=5;exitPerimeter=0;" parent="1" source="zcTIjvDZYzF_Mct9YhcW-4" target="wc_7x4rBT8aoIeLALj2p-31" edge="1">
          <mxGeometry relative="1" as="geometry">
            <Array as="points">
              <mxPoint x="795" y="550" />
            </Array>
          </mxGeometry>
        </mxCell>
        <mxCell id="zcTIjvDZYzF_Mct9YhcW-9" value="Запрос к бд" style="edgeLabel;html=1;align=center;verticalAlign=middle;resizable=0;points=[];" parent="1" vertex="1" connectable="0">
          <mxGeometry x="859.9996212570037" y="530.0033497304789" as="geometry" />
        </mxCell>
        <mxCell id="zcTIjvDZYzF_Mct9YhcW-10" style="edgeStyle=orthogonalEdgeStyle;rounded=0;orthogonalLoop=1;jettySize=auto;html=1;curved=0;exitX=0;exitY=1;exitDx=0;exitDy=-5;exitPerimeter=0;" parent="1" source="zcTIjvDZYzF_Mct9YhcW-6" target="zcTIjvDZYzF_Mct9YhcW-4" edge="1">
          <mxGeometry relative="1" as="geometry">
            <Array as="points">
              <mxPoint x="925" y="830" />
            </Array>
          </mxGeometry>
        </mxCell>
        <mxCell id="zcTIjvDZYzF_Mct9YhcW-12" value="Резульат поиска" style="text;html=1;align=center;verticalAlign=middle;resizable=0;points=[];autosize=1;strokeColor=none;fillColor=none;" parent="1" vertex="1">
          <mxGeometry x="800" y="800" width="120" height="30" as="geometry" />
        </mxCell>
        <mxCell id="zcTIjvDZYzF_Mct9YhcW-15" style="edgeStyle=orthogonalEdgeStyle;rounded=0;orthogonalLoop=1;jettySize=auto;html=1;curved=0;exitX=1;exitY=1;exitDx=0;exitDy=-5;exitPerimeter=0;" parent="1" source="zcTIjvDZYzF_Mct9YhcW-1" target="wc_7x4rBT8aoIeLALj2p-32" edge="1">
          <mxGeometry relative="1" as="geometry">
            <Array as="points">
              <mxPoint x="950" y="905" />
              <mxPoint x="950" y="905" />
            </Array>
          </mxGeometry>
        </mxCell>
        <mxCell id="zcTIjvDZYzF_Mct9YhcW-21" style="edgeStyle=orthogonalEdgeStyle;rounded=0;orthogonalLoop=1;jettySize=auto;html=1;curved=0;exitX=0;exitY=1;exitDx=0;exitDy=-5;exitPerimeter=0;" parent="1" source="zcTIjvDZYzF_Mct9YhcW-14" target="zcTIjvDZYzF_Mct9YhcW-20" edge="1">
          <mxGeometry relative="1" as="geometry">
            <Array as="points">
              <mxPoint x="440" y="1035" />
              <mxPoint x="440" y="1035" />
            </Array>
          </mxGeometry>
        </mxCell>
        <mxCell id="zcTIjvDZYzF_Mct9YhcW-14" value="" style="html=1;points=[[0,0,0,0,5],[0,1,0,0,-5],[1,0,0,0,5],[1,1,0,0,-5]];perimeter=orthogonalPerimeter;outlineConnect=0;targetShapes=umlLifeline;portConstraint=eastwest;newEdgeStyle={&quot;curved&quot;:0,&quot;rounded&quot;:0};" parent="1" vertex="1">
          <mxGeometry x="1186" y="960" width="10" height="80" as="geometry" />
        </mxCell>
        <mxCell id="zcTIjvDZYzF_Mct9YhcW-17" value="Предсказание модели МО" style="text;html=1;align=center;verticalAlign=middle;resizable=0;points=[];autosize=1;strokeColor=none;fillColor=none;" parent="1" vertex="1">
          <mxGeometry x="765" y="878" width="170" height="30" as="geometry" />
        </mxCell>
        <mxCell id="zcTIjvDZYzF_Mct9YhcW-18" style="edgeStyle=orthogonalEdgeStyle;rounded=0;orthogonalLoop=1;jettySize=auto;html=1;curved=0;exitX=1;exitY=1;exitDx=0;exitDy=-5;exitPerimeter=0;" parent="1" source="zcTIjvDZYzF_Mct9YhcW-13" target="wc_7x4rBT8aoIeLALj2p-33" edge="1">
          <mxGeometry relative="1" as="geometry">
            <Array as="points">
              <mxPoint x="1160" y="965" />
              <mxPoint x="1160" y="965" />
            </Array>
          </mxGeometry>
        </mxCell>
        <mxCell id="zcTIjvDZYzF_Mct9YhcW-19" value="Информация на вывод" style="text;html=1;align=center;verticalAlign=middle;resizable=0;points=[];autosize=1;strokeColor=none;fillColor=none;" parent="1" vertex="1">
          <mxGeometry x="1060" y="938" width="150" height="30" as="geometry" />
        </mxCell>
        <mxCell id="zcTIjvDZYzF_Mct9YhcW-20" value="" style="html=1;points=[[0,0,0,0,5],[0,1,0,0,-5],[1,0,0,0,5],[1,1,0,0,-5]];perimeter=orthogonalPerimeter;outlineConnect=0;targetShapes=umlLifeline;portConstraint=eastwest;newEdgeStyle={&quot;curved&quot;:0,&quot;rounded&quot;:0};" parent="1" vertex="1">
          <mxGeometry x="185" y="1020" width="10" height="80" as="geometry" />
        </mxCell>
        <mxCell id="zcTIjvDZYzF_Mct9YhcW-22" value="Отображению пользователю" style="text;html=1;align=center;verticalAlign=middle;resizable=0;points=[];autosize=1;strokeColor=none;fillColor=none;" parent="1" vertex="1">
          <mxGeometry x="680" y="998" width="180" height="30" as="geometry" />
        </mxCell>
      </root>
    </mxGraphModel>
  </diagram>
  <diagram id="83glrF2eUn3j3s9NnuNB" name="Деятельности">
    <mxGraphModel dx="1434" dy="844" grid="1" gridSize="10" guides="1" tooltips="1" connect="1" arrows="1" fold="1" page="1" pageScale="1" pageWidth="827" pageHeight="1169" math="0" shadow="0">
      <root>
        <mxCell id="0" />
        <mxCell id="1" parent="0" />
        <mxCell id="jOD8AdmEZ22Phtpk3Ilv-1" value="" style="swimlane;childLayout=stackLayout;resizeParent=1;resizeParentMax=0;startSize=20;html=1;" vertex="1" parent="1">
          <mxGeometry x="70" y="170" width="1080" height="720" as="geometry" />
        </mxCell>
        <mxCell id="jOD8AdmEZ22Phtpk3Ilv-2" value="Пользователь" style="swimlane;startSize=50;html=1;" vertex="1" parent="jOD8AdmEZ22Phtpk3Ilv-1">
          <mxGeometry y="20" width="120" height="700" as="geometry" />
        </mxCell>
        <mxCell id="l10EnWaqAH4ErNXJKDrr-4" value="Приглашение к&lt;div&gt;отправке файла&lt;/div&gt;" style="rounded=0;whiteSpace=wrap;html=1;" vertex="1" parent="jOD8AdmEZ22Phtpk3Ilv-2">
          <mxGeometry x="15" y="120" width="90" height="50" as="geometry" />
        </mxCell>
        <mxCell id="l10EnWaqAH4ErNXJKDrr-7" style="edgeStyle=orthogonalEdgeStyle;rounded=0;orthogonalLoop=1;jettySize=auto;html=1;" edge="1" parent="jOD8AdmEZ22Phtpk3Ilv-2" source="l10EnWaqAH4ErNXJKDrr-5" target="l10EnWaqAH4ErNXJKDrr-4">
          <mxGeometry relative="1" as="geometry" />
        </mxCell>
        <mxCell id="l10EnWaqAH4ErNXJKDrr-5" value="" style="ellipse;html=1;shape=startState;fillColor=#000000;strokeColor=#ff0000;" vertex="1" parent="jOD8AdmEZ22Phtpk3Ilv-2">
          <mxGeometry x="45" y="60" width="30" height="30" as="geometry" />
        </mxCell>
        <mxCell id="DZ62w3RrudfRLDZ6dToU-3" value="" style="ellipse;html=1;shape=endState;fillColor=#000000;strokeColor=#ff0000;" vertex="1" parent="jOD8AdmEZ22Phtpk3Ilv-2">
          <mxGeometry x="45" y="285" width="30" height="30" as="geometry" />
        </mxCell>
        <mxCell id="jOD8AdmEZ22Phtpk3Ilv-3" value="Интерфейс &lt;br&gt;загрузки видео" style="swimlane;startSize=50;html=1;" vertex="1" parent="jOD8AdmEZ22Phtpk3Ilv-1">
          <mxGeometry x="120" y="20" width="120" height="700" as="geometry" />
        </mxCell>
        <mxCell id="DZ62w3RrudfRLDZ6dToU-2" style="edgeStyle=orthogonalEdgeStyle;rounded=0;orthogonalLoop=1;jettySize=auto;html=1;exitX=0.5;exitY=1;exitDx=0;exitDy=0;" edge="1" parent="jOD8AdmEZ22Phtpk3Ilv-3" source="alDMyiogPSzfWP2VSJRh-1" target="DZ62w3RrudfRLDZ6dToU-1">
          <mxGeometry relative="1" as="geometry" />
        </mxCell>
        <mxCell id="alDMyiogPSzfWP2VSJRh-1" value="Загрузка файла пользователем" style="rounded=0;whiteSpace=wrap;html=1;" vertex="1" parent="jOD8AdmEZ22Phtpk3Ilv-3">
          <mxGeometry x="15" y="170" width="90" height="50" as="geometry" />
        </mxCell>
        <mxCell id="DZ62w3RrudfRLDZ6dToU-1" value="Загрузка успешна" style="rhombus;whiteSpace=wrap;html=1;" vertex="1" parent="jOD8AdmEZ22Phtpk3Ilv-3">
          <mxGeometry x="20" y="260" width="80" height="80" as="geometry" />
        </mxCell>
        <mxCell id="jOD8AdmEZ22Phtpk3Ilv-4" value="Компоненты&amp;nbsp;&lt;div&gt;предобработки&lt;/div&gt;" style="swimlane;startSize=50;html=1;" vertex="1" parent="jOD8AdmEZ22Phtpk3Ilv-1">
          <mxGeometry x="240" y="20" width="120" height="700" as="geometry" />
        </mxCell>
        <mxCell id="NAQspQgmOBStLVEe1WSf-1" value="Обработка загруженного файла" style="rounded=0;whiteSpace=wrap;html=1;" vertex="1" parent="jOD8AdmEZ22Phtpk3Ilv-4">
          <mxGeometry x="15" y="275" width="90" height="50" as="geometry" />
        </mxCell>
        <mxCell id="Yoexm2YkgYkd3QGR5QX6-3" value="Алгоритм&lt;div&gt;извлечения&amp;nbsp;&lt;/div&gt;&lt;div&gt;признаков&lt;/div&gt;" style="swimlane;startSize=50;html=1;" vertex="1" parent="jOD8AdmEZ22Phtpk3Ilv-1">
          <mxGeometry x="360" y="20" width="120" height="700" as="geometry" />
        </mxCell>
        <mxCell id="NAQspQgmOBStLVEe1WSf-4" value="Извлечение признаков" style="rounded=0;whiteSpace=wrap;html=1;" vertex="1" parent="Yoexm2YkgYkd3QGR5QX6-3">
          <mxGeometry x="15" y="310" width="90" height="50" as="geometry" />
        </mxCell>
        <mxCell id="Yoexm2YkgYkd3QGR5QX6-4" value="Модель МО" style="swimlane;startSize=50;html=1;" vertex="1" parent="jOD8AdmEZ22Phtpk3Ilv-1">
          <mxGeometry x="480" y="20" width="120" height="700" as="geometry" />
        </mxCell>
        <mxCell id="CAfWTqltMw-IUqS8MwlU-3" style="edgeStyle=orthogonalEdgeStyle;rounded=0;orthogonalLoop=1;jettySize=auto;html=1;" edge="1" parent="Yoexm2YkgYkd3QGR5QX6-4" source="fKef_x3__AgI8ACkrETx-1" target="CAfWTqltMw-IUqS8MwlU-2">
          <mxGeometry relative="1" as="geometry" />
        </mxCell>
        <mxCell id="fKef_x3__AgI8ACkrETx-1" value="Получение извлеченных признаков" style="rounded=0;whiteSpace=wrap;html=1;" vertex="1" parent="Yoexm2YkgYkd3QGR5QX6-4">
          <mxGeometry x="15" y="340" width="90" height="50" as="geometry" />
        </mxCell>
        <mxCell id="CAfWTqltMw-IUqS8MwlU-2" value="Запрос данных из БД" style="rounded=0;whiteSpace=wrap;html=1;" vertex="1" parent="Yoexm2YkgYkd3QGR5QX6-4">
          <mxGeometry x="15" y="420" width="90" height="50" as="geometry" />
        </mxCell>
        <mxCell id="9RcIv3uW3Agqas4jXj6G-9" value="Обработка ответа и предсказание" style="rounded=0;whiteSpace=wrap;html=1;" vertex="1" parent="Yoexm2YkgYkd3QGR5QX6-4">
          <mxGeometry x="15" y="510" width="90" height="50" as="geometry" />
        </mxCell>
        <mxCell id="n-2sA0a78_nNOT2aRJGw-1" value="Поиск в БД" style="swimlane;startSize=50;html=1;" vertex="1" parent="jOD8AdmEZ22Phtpk3Ilv-1">
          <mxGeometry x="600" y="20" width="120" height="700" as="geometry" />
        </mxCell>
        <mxCell id="9RcIv3uW3Agqas4jXj6G-1" value="Формирование запроса к БД" style="rounded=0;whiteSpace=wrap;html=1;" vertex="1" parent="n-2sA0a78_nNOT2aRJGw-1">
          <mxGeometry x="15" y="420" width="90" height="50" as="geometry" />
        </mxCell>
        <mxCell id="9RcIv3uW3Agqas4jXj6G-7" value="Обработка полученных данных" style="rounded=0;whiteSpace=wrap;html=1;" vertex="1" parent="n-2sA0a78_nNOT2aRJGw-1">
          <mxGeometry x="20" y="510" width="90" height="50" as="geometry" />
        </mxCell>
        <mxCell id="n-2sA0a78_nNOT2aRJGw-2" value="БД" style="swimlane;startSize=50;html=1;" vertex="1" parent="jOD8AdmEZ22Phtpk3Ilv-1">
          <mxGeometry x="720" y="20" width="120" height="700" as="geometry" />
        </mxCell>
        <mxCell id="9RcIv3uW3Agqas4jXj6G-3" value="Поиск данных" style="rounded=0;whiteSpace=wrap;html=1;" vertex="1" parent="n-2sA0a78_nNOT2aRJGw-2">
          <mxGeometry x="15" y="460" width="90" height="50" as="geometry" />
        </mxCell>
        <mxCell id="n-2sA0a78_nNOT2aRJGw-3" value="Формирование&lt;div&gt;информации&lt;/div&gt;&lt;div&gt;для вывода&lt;/div&gt;" style="swimlane;startSize=50;html=1;" vertex="1" parent="jOD8AdmEZ22Phtpk3Ilv-1">
          <mxGeometry x="840" y="20" width="120" height="700" as="geometry" />
        </mxCell>
        <mxCell id="2T5G2jQuj6MpmUeMGPdE-1" value="Формирование вывода" style="rounded=0;whiteSpace=wrap;html=1;" vertex="1" parent="n-2sA0a78_nNOT2aRJGw-3">
          <mxGeometry x="15" y="560" width="90" height="50" as="geometry" />
        </mxCell>
        <mxCell id="alDMyiogPSzfWP2VSJRh-2" style="edgeStyle=orthogonalEdgeStyle;rounded=0;orthogonalLoop=1;jettySize=auto;html=1;exitX=0.5;exitY=1;exitDx=0;exitDy=0;" edge="1" parent="jOD8AdmEZ22Phtpk3Ilv-1" source="l10EnWaqAH4ErNXJKDrr-4" target="alDMyiogPSzfWP2VSJRh-1">
          <mxGeometry relative="1" as="geometry" />
        </mxCell>
        <mxCell id="DZ62w3RrudfRLDZ6dToU-4" style="edgeStyle=orthogonalEdgeStyle;rounded=0;orthogonalLoop=1;jettySize=auto;html=1;exitX=0;exitY=0.5;exitDx=0;exitDy=0;" edge="1" parent="jOD8AdmEZ22Phtpk3Ilv-1" source="DZ62w3RrudfRLDZ6dToU-1" target="DZ62w3RrudfRLDZ6dToU-3">
          <mxGeometry relative="1" as="geometry" />
        </mxCell>
        <mxCell id="DZ62w3RrudfRLDZ6dToU-5" value="Нет" style="edgeLabel;html=1;align=center;verticalAlign=middle;resizable=0;points=[];" vertex="1" connectable="0" parent="DZ62w3RrudfRLDZ6dToU-4">
          <mxGeometry x="0.0154" relative="1" as="geometry">
            <mxPoint as="offset" />
          </mxGeometry>
        </mxCell>
        <mxCell id="T5OuL9juLHkvh8XSwk-Q-1" value="Интерфейс&lt;div&gt;вывода на экран&lt;/div&gt;" style="swimlane;startSize=50;html=1;" vertex="1" parent="jOD8AdmEZ22Phtpk3Ilv-1">
          <mxGeometry x="960" y="20" width="120" height="700" as="geometry" />
        </mxCell>
        <mxCell id="2T5G2jQuj6MpmUeMGPdE-8" style="edgeStyle=orthogonalEdgeStyle;rounded=0;orthogonalLoop=1;jettySize=auto;html=1;exitX=0.5;exitY=1;exitDx=0;exitDy=0;" edge="1" parent="T5OuL9juLHkvh8XSwk-Q-1" source="2T5G2jQuj6MpmUeMGPdE-3" target="2T5G2jQuj6MpmUeMGPdE-7">
          <mxGeometry relative="1" as="geometry" />
        </mxCell>
        <mxCell id="2T5G2jQuj6MpmUeMGPdE-3" value="Вывод информации" style="rounded=0;whiteSpace=wrap;html=1;" vertex="1" parent="T5OuL9juLHkvh8XSwk-Q-1">
          <mxGeometry x="15" y="560" width="90" height="50" as="geometry" />
        </mxCell>
        <mxCell id="2T5G2jQuj6MpmUeMGPdE-7" value="" style="ellipse;html=1;shape=endState;fillColor=#000000;strokeColor=#ff0000;" vertex="1" parent="T5OuL9juLHkvh8XSwk-Q-1">
          <mxGeometry x="45" y="650" width="30" height="30" as="geometry" />
        </mxCell>
        <mxCell id="NAQspQgmOBStLVEe1WSf-2" style="edgeStyle=orthogonalEdgeStyle;rounded=0;orthogonalLoop=1;jettySize=auto;html=1;exitX=1;exitY=0.5;exitDx=0;exitDy=0;" edge="1" parent="jOD8AdmEZ22Phtpk3Ilv-1" source="DZ62w3RrudfRLDZ6dToU-1" target="NAQspQgmOBStLVEe1WSf-1">
          <mxGeometry relative="1" as="geometry" />
        </mxCell>
        <mxCell id="NAQspQgmOBStLVEe1WSf-3" value="Да" style="edgeLabel;html=1;align=center;verticalAlign=middle;resizable=0;points=[];" vertex="1" connectable="0" parent="NAQspQgmOBStLVEe1WSf-2">
          <mxGeometry x="-0.3778" y="4" relative="1" as="geometry">
            <mxPoint as="offset" />
          </mxGeometry>
        </mxCell>
        <mxCell id="NAQspQgmOBStLVEe1WSf-5" style="edgeStyle=orthogonalEdgeStyle;rounded=0;orthogonalLoop=1;jettySize=auto;html=1;exitX=0.5;exitY=1;exitDx=0;exitDy=0;entryX=0;entryY=0.5;entryDx=0;entryDy=0;" edge="1" parent="jOD8AdmEZ22Phtpk3Ilv-1" source="NAQspQgmOBStLVEe1WSf-1" target="NAQspQgmOBStLVEe1WSf-4">
          <mxGeometry relative="1" as="geometry">
            <Array as="points">
              <mxPoint x="300" y="355" />
            </Array>
          </mxGeometry>
        </mxCell>
        <mxCell id="CAfWTqltMw-IUqS8MwlU-1" style="edgeStyle=orthogonalEdgeStyle;rounded=0;orthogonalLoop=1;jettySize=auto;html=1;exitX=0.5;exitY=1;exitDx=0;exitDy=0;" edge="1" parent="jOD8AdmEZ22Phtpk3Ilv-1" source="NAQspQgmOBStLVEe1WSf-4" target="fKef_x3__AgI8ACkrETx-1">
          <mxGeometry relative="1" as="geometry">
            <Array as="points">
              <mxPoint x="420" y="385" />
            </Array>
          </mxGeometry>
        </mxCell>
        <mxCell id="9RcIv3uW3Agqas4jXj6G-2" style="edgeStyle=orthogonalEdgeStyle;rounded=0;orthogonalLoop=1;jettySize=auto;html=1;exitX=1;exitY=0.5;exitDx=0;exitDy=0;" edge="1" parent="jOD8AdmEZ22Phtpk3Ilv-1" source="CAfWTqltMw-IUqS8MwlU-2" target="9RcIv3uW3Agqas4jXj6G-1">
          <mxGeometry relative="1" as="geometry" />
        </mxCell>
        <mxCell id="9RcIv3uW3Agqas4jXj6G-4" style="edgeStyle=orthogonalEdgeStyle;rounded=0;orthogonalLoop=1;jettySize=auto;html=1;exitX=1;exitY=0.5;exitDx=0;exitDy=0;" edge="1" parent="jOD8AdmEZ22Phtpk3Ilv-1" source="9RcIv3uW3Agqas4jXj6G-1" target="9RcIv3uW3Agqas4jXj6G-3">
          <mxGeometry relative="1" as="geometry">
            <Array as="points">
              <mxPoint x="780" y="465" />
            </Array>
          </mxGeometry>
        </mxCell>
        <mxCell id="9RcIv3uW3Agqas4jXj6G-8" style="edgeStyle=orthogonalEdgeStyle;rounded=0;orthogonalLoop=1;jettySize=auto;html=1;exitX=0.5;exitY=1;exitDx=0;exitDy=0;" edge="1" parent="jOD8AdmEZ22Phtpk3Ilv-1" source="9RcIv3uW3Agqas4jXj6G-3" target="9RcIv3uW3Agqas4jXj6G-7">
          <mxGeometry relative="1" as="geometry" />
        </mxCell>
        <mxCell id="9RcIv3uW3Agqas4jXj6G-10" style="edgeStyle=orthogonalEdgeStyle;rounded=0;orthogonalLoop=1;jettySize=auto;html=1;" edge="1" parent="jOD8AdmEZ22Phtpk3Ilv-1" source="9RcIv3uW3Agqas4jXj6G-7" target="9RcIv3uW3Agqas4jXj6G-9">
          <mxGeometry relative="1" as="geometry" />
        </mxCell>
        <mxCell id="2T5G2jQuj6MpmUeMGPdE-2" style="edgeStyle=orthogonalEdgeStyle;rounded=0;orthogonalLoop=1;jettySize=auto;html=1;exitX=0.5;exitY=1;exitDx=0;exitDy=0;entryX=0;entryY=0.5;entryDx=0;entryDy=0;" edge="1" parent="jOD8AdmEZ22Phtpk3Ilv-1" source="9RcIv3uW3Agqas4jXj6G-9" target="2T5G2jQuj6MpmUeMGPdE-1">
          <mxGeometry relative="1" as="geometry" />
        </mxCell>
        <mxCell id="2T5G2jQuj6MpmUeMGPdE-4" style="edgeStyle=orthogonalEdgeStyle;rounded=0;orthogonalLoop=1;jettySize=auto;html=1;exitX=1;exitY=0.5;exitDx=0;exitDy=0;" edge="1" parent="jOD8AdmEZ22Phtpk3Ilv-1" source="2T5G2jQuj6MpmUeMGPdE-1" target="2T5G2jQuj6MpmUeMGPdE-3">
          <mxGeometry relative="1" as="geometry" />
        </mxCell>
      </root>
    </mxGraphModel>
  </diagram>
  <diagram id="0vI9k1IAY_-lf8j0-r7H" name="Кооперации">
    <mxGraphModel dx="989" dy="582" grid="1" gridSize="10" guides="1" tooltips="1" connect="1" arrows="1" fold="1" page="1" pageScale="1" pageWidth="827" pageHeight="1169" math="0" shadow="0">
      <root>
        <mxCell id="0" />
        <mxCell id="1" parent="0" />
        <mxCell id="dT1CgD6OOscI89HznABP-1" style="rounded=0;orthogonalLoop=1;jettySize=auto;html=1;endArrow=none;endFill=0;" edge="1" parent="1" source="ktTWtu94lLZ3ioEkndyv-1" target="ktTWtu94lLZ3ioEkndyv-2">
          <mxGeometry relative="1" as="geometry" />
        </mxCell>
        <mxCell id="ktTWtu94lLZ3ioEkndyv-1" value="Клиент" style="shape=umlActor;verticalLabelPosition=bottom;verticalAlign=top;html=1;outlineConnect=0;" vertex="1" parent="1">
          <mxGeometry x="90" y="150" width="30" height="60" as="geometry" />
        </mxCell>
        <mxCell id="nrhxy6NdMLC1GrobSGV5-11" style="edgeStyle=none;rounded=0;orthogonalLoop=1;jettySize=auto;html=1;strokeColor=default;align=center;verticalAlign=middle;fontFamily=Helvetica;fontSize=11;fontColor=default;labelBackgroundColor=default;endArrow=none;endFill=0;" edge="1" parent="1" source="ktTWtu94lLZ3ioEkndyv-2" target="HWBTeF-JL2W1lpZMHZUR-1">
          <mxGeometry relative="1" as="geometry" />
        </mxCell>
        <mxCell id="ktTWtu94lLZ3ioEkndyv-2" value="Интерфейс загрузки видео" style="rounded=0;whiteSpace=wrap;html=1;" vertex="1" parent="1">
          <mxGeometry x="240" y="150" width="120" height="60" as="geometry" />
        </mxCell>
        <mxCell id="dT1CgD6OOscI89HznABP-2" value="" style="endArrow=classic;html=1;rounded=0;strokeColor=default;align=center;verticalAlign=middle;fontFamily=Helvetica;fontSize=11;fontColor=default;labelBackgroundColor=default;edgeStyle=orthogonalEdgeStyle;" edge="1" parent="1">
          <mxGeometry width="50" height="50" relative="1" as="geometry">
            <mxPoint x="150" y="130" as="sourcePoint" />
            <mxPoint x="210" y="130" as="targetPoint" />
          </mxGeometry>
        </mxCell>
        <mxCell id="5KGnoI1P4aH1L7q0Yjrk-1" value="Пользовательский&amp;nbsp;&lt;div&gt;ввод&lt;/div&gt;" style="edgeLabel;html=1;align=center;verticalAlign=middle;resizable=0;points=[];fontFamily=Helvetica;fontSize=11;fontColor=default;labelBackgroundColor=default;" vertex="1" connectable="0" parent="dT1CgD6OOscI89HznABP-2">
          <mxGeometry x="-0.1667" y="3" relative="1" as="geometry">
            <mxPoint x="5" y="23" as="offset" />
          </mxGeometry>
        </mxCell>
        <mxCell id="nrhxy6NdMLC1GrobSGV5-12" style="edgeStyle=none;rounded=0;orthogonalLoop=1;jettySize=auto;html=1;strokeColor=default;align=center;verticalAlign=middle;fontFamily=Helvetica;fontSize=11;fontColor=default;labelBackgroundColor=default;endArrow=none;endFill=0;" edge="1" parent="1" source="HWBTeF-JL2W1lpZMHZUR-1" target="8_msP8sRw-Ai-Kk5O17y-1">
          <mxGeometry relative="1" as="geometry" />
        </mxCell>
        <mxCell id="HWBTeF-JL2W1lpZMHZUR-1" value="Компоненты предобработки" style="rounded=0;whiteSpace=wrap;html=1;" vertex="1" parent="1">
          <mxGeometry x="60" y="300" width="120" height="60" as="geometry" />
        </mxCell>
        <mxCell id="nrhxy6NdMLC1GrobSGV5-13" style="edgeStyle=none;rounded=0;orthogonalLoop=1;jettySize=auto;html=1;strokeColor=default;align=center;verticalAlign=middle;fontFamily=Helvetica;fontSize=11;fontColor=default;labelBackgroundColor=default;endArrow=none;endFill=0;" edge="1" parent="1" source="8_msP8sRw-Ai-Kk5O17y-1" target="_dyuNhZb1Uohcc9NzMcH-1">
          <mxGeometry relative="1" as="geometry" />
        </mxCell>
        <mxCell id="8_msP8sRw-Ai-Kk5O17y-1" value="Алгоритм извлечения признаков" style="rounded=0;whiteSpace=wrap;html=1;" vertex="1" parent="1">
          <mxGeometry x="270" y="300" width="120" height="60" as="geometry" />
        </mxCell>
        <mxCell id="nrhxy6NdMLC1GrobSGV5-14" style="edgeStyle=none;rounded=0;orthogonalLoop=1;jettySize=auto;html=1;strokeColor=default;align=center;verticalAlign=middle;fontFamily=Helvetica;fontSize=11;fontColor=default;labelBackgroundColor=default;endArrow=none;endFill=0;" edge="1" parent="1" source="_dyuNhZb1Uohcc9NzMcH-1" target="vz9ZFQk9TnYOyxguhZJC-1">
          <mxGeometry relative="1" as="geometry" />
        </mxCell>
        <mxCell id="z-U4rj4M44vorjEmBcdy-3" style="edgeStyle=none;rounded=0;orthogonalLoop=1;jettySize=auto;html=1;strokeColor=default;align=center;verticalAlign=middle;fontFamily=Helvetica;fontSize=11;fontColor=default;labelBackgroundColor=default;endArrow=none;endFill=0;" edge="1" parent="1" source="_dyuNhZb1Uohcc9NzMcH-1" target="nrhxy6NdMLC1GrobSGV5-1">
          <mxGeometry relative="1" as="geometry" />
        </mxCell>
        <mxCell id="_dyuNhZb1Uohcc9NzMcH-1" value="Модель МО" style="rounded=0;whiteSpace=wrap;html=1;" vertex="1" parent="1">
          <mxGeometry x="430" y="150" width="120" height="60" as="geometry" />
        </mxCell>
        <mxCell id="nrhxy6NdMLC1GrobSGV5-15" style="edgeStyle=none;rounded=0;orthogonalLoop=1;jettySize=auto;html=1;strokeColor=default;align=center;verticalAlign=middle;fontFamily=Helvetica;fontSize=11;fontColor=default;labelBackgroundColor=default;endArrow=none;endFill=0;" edge="1" parent="1" source="vz9ZFQk9TnYOyxguhZJC-1" target="xDoYhsBt1S7MZQeQ_hDh-1">
          <mxGeometry relative="1" as="geometry" />
        </mxCell>
        <mxCell id="vz9ZFQk9TnYOyxguhZJC-1" value="Поиск в БД" style="rounded=0;whiteSpace=wrap;html=1;" vertex="1" parent="1">
          <mxGeometry x="430" y="350" width="120" height="60" as="geometry" />
        </mxCell>
        <mxCell id="xDoYhsBt1S7MZQeQ_hDh-1" value="БД" style="rounded=0;whiteSpace=wrap;html=1;" vertex="1" parent="1">
          <mxGeometry x="60" y="410" width="120" height="60" as="geometry" />
        </mxCell>
        <mxCell id="nrhxy6NdMLC1GrobSGV5-17" style="edgeStyle=none;rounded=0;orthogonalLoop=1;jettySize=auto;html=1;strokeColor=default;align=center;verticalAlign=middle;fontFamily=Helvetica;fontSize=11;fontColor=default;labelBackgroundColor=default;endArrow=none;endFill=0;" edge="1" parent="1" source="nrhxy6NdMLC1GrobSGV5-1" target="nrhxy6NdMLC1GrobSGV5-2">
          <mxGeometry relative="1" as="geometry" />
        </mxCell>
        <mxCell id="nrhxy6NdMLC1GrobSGV5-1" value="Формирование информации для вывода" style="rounded=0;whiteSpace=wrap;html=1;" vertex="1" parent="1">
          <mxGeometry x="430" y="20" width="120" height="60" as="geometry" />
        </mxCell>
        <mxCell id="nrhxy6NdMLC1GrobSGV5-2" value="Интерфейс вывода на экран" style="rounded=0;whiteSpace=wrap;html=1;" vertex="1" parent="1">
          <mxGeometry x="230" y="20" width="120" height="60" as="geometry" />
        </mxCell>
        <mxCell id="nrhxy6NdMLC1GrobSGV5-18" value="" style="endArrow=classic;html=1;rounded=0;strokeColor=default;align=center;verticalAlign=middle;fontFamily=Helvetica;fontSize=11;fontColor=default;labelBackgroundColor=default;" edge="1" parent="1">
          <mxGeometry width="50" height="50" relative="1" as="geometry">
            <mxPoint x="260" y="230" as="sourcePoint" />
            <mxPoint x="210" y="270" as="targetPoint" />
          </mxGeometry>
        </mxCell>
        <mxCell id="nrhxy6NdMLC1GrobSGV5-19" value="Загруженный файл" style="edgeLabel;html=1;align=center;verticalAlign=middle;resizable=0;points=[];fontFamily=Helvetica;fontSize=11;fontColor=default;labelBackgroundColor=default;" vertex="1" connectable="0" parent="nrhxy6NdMLC1GrobSGV5-18">
          <mxGeometry x="-0.1667" y="3" relative="1" as="geometry">
            <mxPoint x="39" y="1" as="offset" />
          </mxGeometry>
        </mxCell>
        <mxCell id="Fqc4UtGCZf7yMOgOP4ZF-1" value="" style="endArrow=classic;html=1;rounded=0;strokeColor=default;align=center;verticalAlign=middle;fontFamily=Helvetica;fontSize=11;fontColor=default;labelBackgroundColor=default;" edge="1" parent="1">
          <mxGeometry width="50" height="50" relative="1" as="geometry">
            <mxPoint x="200" y="320" as="sourcePoint" />
            <mxPoint x="250" y="320" as="targetPoint" />
          </mxGeometry>
        </mxCell>
        <mxCell id="Fqc4UtGCZf7yMOgOP4ZF-2" value="Обработанный&lt;div&gt;файл&lt;/div&gt;" style="edgeLabel;html=1;align=center;verticalAlign=middle;resizable=0;points=[];fontFamily=Helvetica;fontSize=11;fontColor=default;labelBackgroundColor=default;" vertex="1" connectable="0" parent="Fqc4UtGCZf7yMOgOP4ZF-1">
          <mxGeometry x="-0.1667" y="3" relative="1" as="geometry">
            <mxPoint x="9" y="-17" as="offset" />
          </mxGeometry>
        </mxCell>
        <mxCell id="Fqc4UtGCZf7yMOgOP4ZF-3" value="" style="endArrow=classic;html=1;rounded=0;strokeColor=default;align=center;verticalAlign=middle;fontFamily=Helvetica;fontSize=11;fontColor=default;labelBackgroundColor=default;" edge="1" parent="1">
          <mxGeometry width="50" height="50" relative="1" as="geometry">
            <mxPoint x="364" y="280" as="sourcePoint" />
            <mxPoint x="410" y="240" as="targetPoint" />
          </mxGeometry>
        </mxCell>
        <mxCell id="Fqc4UtGCZf7yMOgOP4ZF-4" value="Передача признаков" style="edgeLabel;html=1;align=center;verticalAlign=middle;resizable=0;points=[];fontFamily=Helvetica;fontSize=11;fontColor=default;labelBackgroundColor=default;" vertex="1" connectable="0" parent="Fqc4UtGCZf7yMOgOP4ZF-3">
          <mxGeometry x="-0.1667" y="3" relative="1" as="geometry">
            <mxPoint x="33" y="9" as="offset" />
          </mxGeometry>
        </mxCell>
        <mxCell id="Icyr-1MvpLRgRt0ednff-1" value="" style="endArrow=classic;html=1;rounded=0;strokeColor=default;align=center;verticalAlign=middle;fontFamily=Helvetica;fontSize=11;fontColor=default;labelBackgroundColor=default;" edge="1" parent="1">
          <mxGeometry width="50" height="50" relative="1" as="geometry">
            <mxPoint x="504" y="270" as="sourcePoint" />
            <mxPoint x="504" y="330" as="targetPoint" />
          </mxGeometry>
        </mxCell>
        <mxCell id="xD5xrpSWDOlLLoVokR26-1" value="Запрос от модели" style="edgeLabel;html=1;align=center;verticalAlign=middle;resizable=0;points=[];fontFamily=Helvetica;fontSize=11;fontColor=default;labelBackgroundColor=default;" vertex="1" connectable="0" parent="Icyr-1MvpLRgRt0ednff-1">
          <mxGeometry x="0.0023" y="4" relative="1" as="geometry">
            <mxPoint x="52" as="offset" />
          </mxGeometry>
        </mxCell>
        <mxCell id="xD5xrpSWDOlLLoVokR26-2" value="" style="endArrow=classic;html=1;rounded=0;strokeColor=default;align=center;verticalAlign=middle;fontFamily=Helvetica;fontSize=11;fontColor=default;labelBackgroundColor=default;" edge="1" parent="1">
          <mxGeometry width="50" height="50" relative="1" as="geometry">
            <mxPoint x="360" y="410" as="sourcePoint" />
            <mxPoint x="280" y="420" as="targetPoint" />
          </mxGeometry>
        </mxCell>
        <mxCell id="xD5xrpSWDOlLLoVokR26-3" value="Запрос к БД" style="edgeLabel;html=1;align=center;verticalAlign=middle;resizable=0;points=[];fontFamily=Helvetica;fontSize=11;fontColor=default;labelBackgroundColor=default;" vertex="1" connectable="0" parent="xD5xrpSWDOlLLoVokR26-2">
          <mxGeometry x="0.0023" y="4" relative="1" as="geometry">
            <mxPoint x="20" y="11" as="offset" />
          </mxGeometry>
        </mxCell>
        <mxCell id="xD5xrpSWDOlLLoVokR26-5" value="" style="endArrow=classic;html=1;rounded=0;strokeColor=default;align=center;verticalAlign=middle;fontFamily=Helvetica;fontSize=11;fontColor=default;labelBackgroundColor=default;" edge="1" parent="1">
          <mxGeometry width="50" height="50" relative="1" as="geometry">
            <mxPoint x="210" y="410" as="sourcePoint" />
            <mxPoint x="280" y="400" as="targetPoint" />
          </mxGeometry>
        </mxCell>
        <mxCell id="xD5xrpSWDOlLLoVokR26-6" value="Данные из БД" style="edgeLabel;html=1;align=center;verticalAlign=middle;resizable=0;points=[];fontFamily=Helvetica;fontSize=11;fontColor=default;labelBackgroundColor=default;" vertex="1" connectable="0" parent="xD5xrpSWDOlLLoVokR26-5">
          <mxGeometry x="0.0023" y="4" relative="1" as="geometry">
            <mxPoint x="-24" y="-11" as="offset" />
          </mxGeometry>
        </mxCell>
        <mxCell id="z-U4rj4M44vorjEmBcdy-1" value="" style="endArrow=classic;html=1;rounded=0;strokeColor=default;align=center;verticalAlign=middle;fontFamily=Helvetica;fontSize=11;fontColor=default;labelBackgroundColor=default;" edge="1" parent="1">
          <mxGeometry width="50" height="50" relative="1" as="geometry">
            <mxPoint x="480" y="330" as="sourcePoint" />
            <mxPoint x="480" y="270" as="targetPoint" />
          </mxGeometry>
        </mxCell>
        <mxCell id="z-U4rj4M44vorjEmBcdy-2" value="Данные из БД" style="edgeLabel;html=1;align=center;verticalAlign=middle;resizable=0;points=[];fontFamily=Helvetica;fontSize=11;fontColor=default;labelBackgroundColor=default;" vertex="1" connectable="0" parent="z-U4rj4M44vorjEmBcdy-1">
          <mxGeometry x="0.0023" y="4" relative="1" as="geometry">
            <mxPoint x="-36" y="10" as="offset" />
          </mxGeometry>
        </mxCell>
        <mxCell id="z-U4rj4M44vorjEmBcdy-4" value="" style="endArrow=classic;html=1;rounded=0;strokeColor=default;align=center;verticalAlign=middle;fontFamily=Helvetica;fontSize=11;fontColor=default;labelBackgroundColor=default;" edge="1" parent="1">
          <mxGeometry width="50" height="50" relative="1" as="geometry">
            <mxPoint x="500" y="140" as="sourcePoint" />
            <mxPoint x="500" y="90" as="targetPoint" />
          </mxGeometry>
        </mxCell>
        <mxCell id="z-U4rj4M44vorjEmBcdy-5" value="Предсказание МО" style="edgeLabel;html=1;align=center;verticalAlign=middle;resizable=0;points=[];fontFamily=Helvetica;fontSize=11;fontColor=default;labelBackgroundColor=default;" vertex="1" connectable="0" parent="z-U4rj4M44vorjEmBcdy-4">
          <mxGeometry x="0.0023" y="4" relative="1" as="geometry">
            <mxPoint x="52" as="offset" />
          </mxGeometry>
        </mxCell>
        <mxCell id="RLHOs90MNqSeIKLG3P7q-1" value="" style="endArrow=classic;html=1;rounded=0;strokeColor=default;align=center;verticalAlign=middle;fontFamily=Helvetica;fontSize=11;fontColor=default;labelBackgroundColor=default;" edge="1" parent="1">
          <mxGeometry width="50" height="50" relative="1" as="geometry">
            <mxPoint x="410" y="70" as="sourcePoint" />
            <mxPoint x="370" y="70" as="targetPoint" />
          </mxGeometry>
        </mxCell>
        <mxCell id="RLHOs90MNqSeIKLG3P7q-2" value="Сформированная&amp;nbsp;&lt;div&gt;информация&amp;nbsp;&lt;/div&gt;&lt;div&gt;на вывод&lt;/div&gt;" style="edgeLabel;html=1;align=center;verticalAlign=middle;resizable=0;points=[];fontFamily=Helvetica;fontSize=11;fontColor=default;labelBackgroundColor=default;" vertex="1" connectable="0" parent="RLHOs90MNqSeIKLG3P7q-1">
          <mxGeometry x="0.0023" y="4" relative="1" as="geometry">
            <mxPoint y="26" as="offset" />
          </mxGeometry>
        </mxCell>
        <mxCell id="zleMAtU-EMt1-bxidq5s-1" style="edgeStyle=none;rounded=0;orthogonalLoop=1;jettySize=auto;html=1;exitX=0;exitY=0.5;exitDx=0;exitDy=0;entryX=0.5;entryY=0;entryDx=0;entryDy=0;entryPerimeter=0;strokeColor=default;align=center;verticalAlign=middle;fontFamily=Helvetica;fontSize=11;fontColor=default;labelBackgroundColor=default;endArrow=none;endFill=0;" edge="1" parent="1" source="nrhxy6NdMLC1GrobSGV5-2" target="ktTWtu94lLZ3ioEkndyv-1">
          <mxGeometry relative="1" as="geometry" />
        </mxCell>
        <mxCell id="zleMAtU-EMt1-bxidq5s-2" value="" style="endArrow=classic;html=1;rounded=0;strokeColor=default;align=center;verticalAlign=middle;fontFamily=Helvetica;fontSize=11;fontColor=default;labelBackgroundColor=default;" edge="1" parent="1">
          <mxGeometry width="50" height="50" relative="1" as="geometry">
            <mxPoint x="200" y="49.66" as="sourcePoint" />
            <mxPoint x="130" y="100" as="targetPoint" />
          </mxGeometry>
        </mxCell>
        <mxCell id="zleMAtU-EMt1-bxidq5s-3" value="Вывод на экран" style="edgeLabel;html=1;align=center;verticalAlign=middle;resizable=0;points=[];fontFamily=Helvetica;fontSize=11;fontColor=default;labelBackgroundColor=default;" vertex="1" connectable="0" parent="zleMAtU-EMt1-bxidq5s-2">
          <mxGeometry x="0.0023" y="4" relative="1" as="geometry">
            <mxPoint x="-47" y="-28" as="offset" />
          </mxGeometry>
        </mxCell>
      </root>
    </mxGraphModel>
  </diagram>
  <diagram id="mBMM9MeCgDxQxMA_mbXY" name="классов2">
    <mxGraphModel dx="1444" dy="944" grid="1" gridSize="10" guides="1" tooltips="1" connect="1" arrows="1" fold="1" page="1" pageScale="1" pageWidth="827" pageHeight="1169" math="0" shadow="0">
      <root>
        <mxCell id="0" />
        <mxCell id="1" parent="0" />
        <mxCell id="omrHkK5Tw3gK_kSY2J-n-1" value="Интерфейс загрузки видео" style="swimlane;fontStyle=1;align=center;verticalAlign=top;childLayout=stackLayout;horizontal=1;startSize=40;horizontalStack=0;resizeParent=1;resizeParentMax=0;resizeLast=0;collapsible=1;marginBottom=0;whiteSpace=wrap;html=1;" vertex="1" parent="1">
          <mxGeometry x="310" y="63" width="160" height="126" as="geometry" />
        </mxCell>
        <mxCell id="omrHkK5Tw3gK_kSY2J-n-4" value="+ файл" style="text;strokeColor=none;fillColor=none;align=left;verticalAlign=top;spacingLeft=4;spacingRight=4;overflow=hidden;rotatable=0;points=[[0,0.5],[1,0.5]];portConstraint=eastwest;whiteSpace=wrap;html=1;" vertex="1" parent="omrHkK5Tw3gK_kSY2J-n-1">
          <mxGeometry y="40" width="160" height="26" as="geometry" />
        </mxCell>
        <mxCell id="omrHkK5Tw3gK_kSY2J-n-3" value="" style="line;strokeWidth=1;fillColor=none;align=left;verticalAlign=middle;spacingTop=-1;spacingLeft=3;spacingRight=3;rotatable=0;labelPosition=right;points=[];portConstraint=eastwest;strokeColor=inherit;" vertex="1" parent="omrHkK5Tw3gK_kSY2J-n-1">
          <mxGeometry y="66" width="160" height="8" as="geometry" />
        </mxCell>
        <mxCell id="omrHkK5Tw3gK_kSY2J-n-59" value="+ принятьВвод(файл): void" style="text;strokeColor=none;fillColor=none;align=left;verticalAlign=top;spacingLeft=4;spacingRight=4;overflow=hidden;rotatable=0;points=[[0,0.5],[1,0.5]];portConstraint=eastwest;whiteSpace=wrap;html=1;" vertex="1" parent="omrHkK5Tw3gK_kSY2J-n-1">
          <mxGeometry y="74" width="160" height="26" as="geometry" />
        </mxCell>
        <mxCell id="omrHkK5Tw3gK_kSY2J-n-60" value="+ отдатьФайл(): файл" style="text;strokeColor=none;fillColor=none;align=left;verticalAlign=top;spacingLeft=4;spacingRight=4;overflow=hidden;rotatable=0;points=[[0,0.5],[1,0.5]];portConstraint=eastwest;whiteSpace=wrap;html=1;" vertex="1" parent="omrHkK5Tw3gK_kSY2J-n-1">
          <mxGeometry y="100" width="160" height="26" as="geometry" />
        </mxCell>
        <mxCell id="omrHkK5Tw3gK_kSY2J-n-70" style="edgeStyle=orthogonalEdgeStyle;rounded=0;orthogonalLoop=1;jettySize=auto;html=1;" edge="1" parent="1" source="omrHkK5Tw3gK_kSY2J-n-5" target="omrHkK5Tw3gK_kSY2J-n-1">
          <mxGeometry relative="1" as="geometry" />
        </mxCell>
        <mxCell id="omrHkK5Tw3gK_kSY2J-n-5" value="Компоненты предобработки" style="swimlane;fontStyle=1;align=center;verticalAlign=top;childLayout=stackLayout;horizontal=1;startSize=40;horizontalStack=0;resizeParent=1;resizeParentMax=0;resizeLast=0;collapsible=1;marginBottom=0;whiteSpace=wrap;html=1;" vertex="1" parent="1">
          <mxGeometry x="60" y="50" width="190" height="152" as="geometry" />
        </mxCell>
        <mxCell id="omrHkK5Tw3gK_kSY2J-n-6" value="- файл" style="text;strokeColor=none;fillColor=none;align=left;verticalAlign=top;spacingLeft=4;spacingRight=4;overflow=hidden;rotatable=0;points=[[0,0.5],[1,0.5]];portConstraint=eastwest;whiteSpace=wrap;html=1;" vertex="1" parent="omrHkK5Tw3gK_kSY2J-n-5">
          <mxGeometry y="40" width="190" height="26" as="geometry" />
        </mxCell>
        <mxCell id="omrHkK5Tw3gK_kSY2J-n-7" value="" style="line;strokeWidth=1;fillColor=none;align=left;verticalAlign=middle;spacingTop=-1;spacingLeft=3;spacingRight=3;rotatable=0;labelPosition=right;points=[];portConstraint=eastwest;strokeColor=inherit;" vertex="1" parent="omrHkK5Tw3gK_kSY2J-n-5">
          <mxGeometry y="66" width="190" height="8" as="geometry" />
        </mxCell>
        <mxCell id="omrHkK5Tw3gK_kSY2J-n-8" value="+ принятьФайл(файл): void" style="text;strokeColor=none;fillColor=none;align=left;verticalAlign=top;spacingLeft=4;spacingRight=4;overflow=hidden;rotatable=0;points=[[0,0.5],[1,0.5]];portConstraint=eastwest;whiteSpace=wrap;html=1;" vertex="1" parent="omrHkK5Tw3gK_kSY2J-n-5">
          <mxGeometry y="74" width="190" height="26" as="geometry" />
        </mxCell>
        <mxCell id="omrHkK5Tw3gK_kSY2J-n-12" value="+ отдатьФайл(): файл" style="text;strokeColor=none;fillColor=none;align=left;verticalAlign=top;spacingLeft=4;spacingRight=4;overflow=hidden;rotatable=0;points=[[0,0.5],[1,0.5]];portConstraint=eastwest;whiteSpace=wrap;html=1;" vertex="1" parent="omrHkK5Tw3gK_kSY2J-n-5">
          <mxGeometry y="100" width="190" height="26" as="geometry" />
        </mxCell>
        <mxCell id="omrHkK5Tw3gK_kSY2J-n-9" value="- обработатьФайл(): void" style="text;strokeColor=none;fillColor=none;align=left;verticalAlign=top;spacingLeft=4;spacingRight=4;overflow=hidden;rotatable=0;points=[[0,0.5],[1,0.5]];portConstraint=eastwest;whiteSpace=wrap;html=1;" vertex="1" parent="omrHkK5Tw3gK_kSY2J-n-5">
          <mxGeometry y="126" width="190" height="26" as="geometry" />
        </mxCell>
        <mxCell id="omrHkK5Tw3gK_kSY2J-n-66" style="edgeStyle=orthogonalEdgeStyle;rounded=0;orthogonalLoop=1;jettySize=auto;html=1;" edge="1" parent="1" source="omrHkK5Tw3gK_kSY2J-n-13" target="omrHkK5Tw3gK_kSY2J-n-5">
          <mxGeometry relative="1" as="geometry" />
        </mxCell>
        <mxCell id="omrHkK5Tw3gK_kSY2J-n-13" value="Алгоритм извлечения признаков" style="swimlane;fontStyle=1;align=center;verticalAlign=top;childLayout=stackLayout;horizontal=1;startSize=40;horizontalStack=0;resizeParent=1;resizeParentMax=0;resizeLast=0;collapsible=1;marginBottom=0;whiteSpace=wrap;html=1;" vertex="1" parent="1">
          <mxGeometry x="60" y="250" width="190" height="204" as="geometry" />
        </mxCell>
        <mxCell id="omrHkK5Tw3gK_kSY2J-n-14" value="- файл" style="text;strokeColor=none;fillColor=none;align=left;verticalAlign=top;spacingLeft=4;spacingRight=4;overflow=hidden;rotatable=0;points=[[0,0.5],[1,0.5]];portConstraint=eastwest;whiteSpace=wrap;html=1;" vertex="1" parent="omrHkK5Tw3gK_kSY2J-n-13">
          <mxGeometry y="40" width="190" height="26" as="geometry" />
        </mxCell>
        <mxCell id="omrHkK5Tw3gK_kSY2J-n-20" value="- признаки" style="text;strokeColor=none;fillColor=none;align=left;verticalAlign=top;spacingLeft=4;spacingRight=4;overflow=hidden;rotatable=0;points=[[0,0.5],[1,0.5]];portConstraint=eastwest;whiteSpace=wrap;html=1;" vertex="1" parent="omrHkK5Tw3gK_kSY2J-n-13">
          <mxGeometry y="66" width="190" height="26" as="geometry" />
        </mxCell>
        <mxCell id="omrHkK5Tw3gK_kSY2J-n-15" value="" style="line;strokeWidth=1;fillColor=none;align=left;verticalAlign=middle;spacingTop=-1;spacingLeft=3;spacingRight=3;rotatable=0;labelPosition=right;points=[];portConstraint=eastwest;strokeColor=inherit;" vertex="1" parent="omrHkK5Tw3gK_kSY2J-n-13">
          <mxGeometry y="92" width="190" height="8" as="geometry" />
        </mxCell>
        <mxCell id="omrHkK5Tw3gK_kSY2J-n-16" value="+ принятьФайл(файл): void" style="text;strokeColor=none;fillColor=none;align=left;verticalAlign=top;spacingLeft=4;spacingRight=4;overflow=hidden;rotatable=0;points=[[0,0.5],[1,0.5]];portConstraint=eastwest;whiteSpace=wrap;html=1;" vertex="1" parent="omrHkK5Tw3gK_kSY2J-n-13">
          <mxGeometry y="100" width="190" height="26" as="geometry" />
        </mxCell>
        <mxCell id="omrHkK5Tw3gK_kSY2J-n-17" value="+ отдатьФайл(): файл" style="text;strokeColor=none;fillColor=none;align=left;verticalAlign=top;spacingLeft=4;spacingRight=4;overflow=hidden;rotatable=0;points=[[0,0.5],[1,0.5]];portConstraint=eastwest;whiteSpace=wrap;html=1;" vertex="1" parent="omrHkK5Tw3gK_kSY2J-n-13">
          <mxGeometry y="126" width="190" height="26" as="geometry" />
        </mxCell>
        <mxCell id="omrHkK5Tw3gK_kSY2J-n-18" value="- извлечьПризнаки(): void" style="text;strokeColor=none;fillColor=none;align=left;verticalAlign=top;spacingLeft=4;spacingRight=4;overflow=hidden;rotatable=0;points=[[0,0.5],[1,0.5]];portConstraint=eastwest;whiteSpace=wrap;html=1;" vertex="1" parent="omrHkK5Tw3gK_kSY2J-n-13">
          <mxGeometry y="152" width="190" height="26" as="geometry" />
        </mxCell>
        <mxCell id="omrHkK5Tw3gK_kSY2J-n-21" value="+ отдатьПризнаки(): признаки" style="text;strokeColor=none;fillColor=none;align=left;verticalAlign=top;spacingLeft=4;spacingRight=4;overflow=hidden;rotatable=0;points=[[0,0.5],[1,0.5]];portConstraint=eastwest;whiteSpace=wrap;html=1;" vertex="1" parent="omrHkK5Tw3gK_kSY2J-n-13">
          <mxGeometry y="178" width="190" height="26" as="geometry" />
        </mxCell>
        <mxCell id="omrHkK5Tw3gK_kSY2J-n-67" style="edgeStyle=orthogonalEdgeStyle;rounded=0;orthogonalLoop=1;jettySize=auto;html=1;" edge="1" parent="1" source="omrHkK5Tw3gK_kSY2J-n-22" target="omrHkK5Tw3gK_kSY2J-n-13">
          <mxGeometry relative="1" as="geometry" />
        </mxCell>
        <mxCell id="omrHkK5Tw3gK_kSY2J-n-68" style="edgeStyle=orthogonalEdgeStyle;rounded=0;orthogonalLoop=1;jettySize=auto;html=1;" edge="1" parent="1" source="omrHkK5Tw3gK_kSY2J-n-22" target="omrHkK5Tw3gK_kSY2J-n-35">
          <mxGeometry relative="1" as="geometry" />
        </mxCell>
        <mxCell id="omrHkK5Tw3gK_kSY2J-n-22" value="Модель МО" style="swimlane;fontStyle=1;align=center;verticalAlign=top;childLayout=stackLayout;horizontal=1;startSize=40;horizontalStack=0;resizeParent=1;resizeParentMax=0;resizeLast=0;collapsible=1;marginBottom=0;whiteSpace=wrap;html=1;" vertex="1" parent="1">
          <mxGeometry x="330" y="320" width="300" height="178" as="geometry" />
        </mxCell>
        <mxCell id="omrHkK5Tw3gK_kSY2J-n-23" value="- параметры" style="text;strokeColor=none;fillColor=none;align=left;verticalAlign=top;spacingLeft=4;spacingRight=4;overflow=hidden;rotatable=0;points=[[0,0.5],[1,0.5]];portConstraint=eastwest;whiteSpace=wrap;html=1;" vertex="1" parent="omrHkK5Tw3gK_kSY2J-n-22">
          <mxGeometry y="40" width="300" height="26" as="geometry" />
        </mxCell>
        <mxCell id="omrHkK5Tw3gK_kSY2J-n-32" value="+ предсказание" style="text;strokeColor=none;fillColor=none;align=left;verticalAlign=top;spacingLeft=4;spacingRight=4;overflow=hidden;rotatable=0;points=[[0,0.5],[1,0.5]];portConstraint=eastwest;whiteSpace=wrap;html=1;" vertex="1" parent="omrHkK5Tw3gK_kSY2J-n-22">
          <mxGeometry y="66" width="300" height="26" as="geometry" />
        </mxCell>
        <mxCell id="omrHkK5Tw3gK_kSY2J-n-25" value="" style="line;strokeWidth=1;fillColor=none;align=left;verticalAlign=middle;spacingTop=-1;spacingLeft=3;spacingRight=3;rotatable=0;labelPosition=right;points=[];portConstraint=eastwest;strokeColor=inherit;" vertex="1" parent="omrHkK5Tw3gK_kSY2J-n-22">
          <mxGeometry y="92" width="300" height="8" as="geometry" />
        </mxCell>
        <mxCell id="omrHkK5Tw3gK_kSY2J-n-28" value="+ обработатьПризнаки(признаки): void" style="text;strokeColor=none;fillColor=none;align=left;verticalAlign=top;spacingLeft=4;spacingRight=4;overflow=hidden;rotatable=0;points=[[0,0.5],[1,0.5]];portConstraint=eastwest;whiteSpace=wrap;html=1;" vertex="1" parent="omrHkK5Tw3gK_kSY2J-n-22">
          <mxGeometry y="100" width="300" height="26" as="geometry" />
        </mxCell>
        <mxCell id="omrHkK5Tw3gK_kSY2J-n-33" value="- обратиться_к_БД(запрос): void" style="text;strokeColor=none;fillColor=none;align=left;verticalAlign=top;spacingLeft=4;spacingRight=4;overflow=hidden;rotatable=0;points=[[0,0.5],[1,0.5]];portConstraint=eastwest;whiteSpace=wrap;html=1;" vertex="1" parent="omrHkK5Tw3gK_kSY2J-n-22">
          <mxGeometry y="126" width="300" height="26" as="geometry" />
        </mxCell>
        <mxCell id="omrHkK5Tw3gK_kSY2J-n-34" value="- получитьДанныеБД(данные): void" style="text;strokeColor=none;fillColor=none;align=left;verticalAlign=top;spacingLeft=4;spacingRight=4;overflow=hidden;rotatable=0;points=[[0,0.5],[1,0.5]];portConstraint=eastwest;whiteSpace=wrap;html=1;" vertex="1" parent="omrHkK5Tw3gK_kSY2J-n-22">
          <mxGeometry y="152" width="300" height="26" as="geometry" />
        </mxCell>
        <mxCell id="omrHkK5Tw3gK_kSY2J-n-69" style="edgeStyle=orthogonalEdgeStyle;rounded=0;orthogonalLoop=1;jettySize=auto;html=1;" edge="1" parent="1" source="omrHkK5Tw3gK_kSY2J-n-35" target="omrHkK5Tw3gK_kSY2J-n-44">
          <mxGeometry relative="1" as="geometry" />
        </mxCell>
        <mxCell id="omrHkK5Tw3gK_kSY2J-n-35" value="Поиск в БД" style="swimlane;fontStyle=1;align=center;verticalAlign=top;childLayout=stackLayout;horizontal=1;startSize=40;horizontalStack=0;resizeParent=1;resizeParentMax=0;resizeLast=0;collapsible=1;marginBottom=0;whiteSpace=wrap;html=1;" vertex="1" parent="1">
          <mxGeometry x="330" y="550" width="300" height="178" as="geometry" />
        </mxCell>
        <mxCell id="omrHkK5Tw3gK_kSY2J-n-42" value="+ запросМО" style="text;strokeColor=none;fillColor=none;align=left;verticalAlign=top;spacingLeft=4;spacingRight=4;overflow=hidden;rotatable=0;points=[[0,0.5],[1,0.5]];portConstraint=eastwest;whiteSpace=wrap;html=1;" vertex="1" parent="omrHkK5Tw3gK_kSY2J-n-35">
          <mxGeometry y="40" width="300" height="26" as="geometry" />
        </mxCell>
        <mxCell id="omrHkK5Tw3gK_kSY2J-n-43" value="+ данныеБД" style="text;strokeColor=none;fillColor=none;align=left;verticalAlign=top;spacingLeft=4;spacingRight=4;overflow=hidden;rotatable=0;points=[[0,0.5],[1,0.5]];portConstraint=eastwest;whiteSpace=wrap;html=1;" vertex="1" parent="omrHkK5Tw3gK_kSY2J-n-35">
          <mxGeometry y="66" width="300" height="26" as="geometry" />
        </mxCell>
        <mxCell id="omrHkK5Tw3gK_kSY2J-n-38" value="" style="line;strokeWidth=1;fillColor=none;align=left;verticalAlign=middle;spacingTop=-1;spacingLeft=3;spacingRight=3;rotatable=0;labelPosition=right;points=[];portConstraint=eastwest;strokeColor=inherit;" vertex="1" parent="omrHkK5Tw3gK_kSY2J-n-35">
          <mxGeometry y="92" width="300" height="8" as="geometry" />
        </mxCell>
        <mxCell id="omrHkK5Tw3gK_kSY2J-n-40" value="+ получитьЗапросМО(запрос): void" style="text;strokeColor=none;fillColor=none;align=left;verticalAlign=top;spacingLeft=4;spacingRight=4;overflow=hidden;rotatable=0;points=[[0,0.5],[1,0.5]];portConstraint=eastwest;whiteSpace=wrap;html=1;" vertex="1" parent="omrHkK5Tw3gK_kSY2J-n-35">
          <mxGeometry y="100" width="300" height="26" as="geometry" />
        </mxCell>
        <mxCell id="omrHkK5Tw3gK_kSY2J-n-41" value="+ сделатьЗапросБД(): void" style="text;strokeColor=none;fillColor=none;align=left;verticalAlign=top;spacingLeft=4;spacingRight=4;overflow=hidden;rotatable=0;points=[[0,0.5],[1,0.5]];portConstraint=eastwest;whiteSpace=wrap;html=1;" vertex="1" parent="omrHkK5Tw3gK_kSY2J-n-35">
          <mxGeometry y="126" width="300" height="26" as="geometry" />
        </mxCell>
        <mxCell id="omrHkK5Tw3gK_kSY2J-n-50" value="+ отдатьДанныеБД(): void" style="text;strokeColor=none;fillColor=none;align=left;verticalAlign=top;spacingLeft=4;spacingRight=4;overflow=hidden;rotatable=0;points=[[0,0.5],[1,0.5]];portConstraint=eastwest;whiteSpace=wrap;html=1;" vertex="1" parent="omrHkK5Tw3gK_kSY2J-n-35">
          <mxGeometry y="152" width="300" height="26" as="geometry" />
        </mxCell>
        <mxCell id="omrHkK5Tw3gK_kSY2J-n-44" value="БД" style="swimlane;fontStyle=1;align=center;verticalAlign=top;childLayout=stackLayout;horizontal=1;startSize=40;horizontalStack=0;resizeParent=1;resizeParentMax=0;resizeLast=0;collapsible=1;marginBottom=0;whiteSpace=wrap;html=1;" vertex="1" parent="1">
          <mxGeometry x="330" y="790" width="300" height="74" as="geometry" />
        </mxCell>
        <mxCell id="omrHkK5Tw3gK_kSY2J-n-47" value="" style="line;strokeWidth=1;fillColor=none;align=left;verticalAlign=middle;spacingTop=-1;spacingLeft=3;spacingRight=3;rotatable=0;labelPosition=right;points=[];portConstraint=eastwest;strokeColor=inherit;" vertex="1" parent="omrHkK5Tw3gK_kSY2J-n-44">
          <mxGeometry y="40" width="300" height="8" as="geometry" />
        </mxCell>
        <mxCell id="omrHkK5Tw3gK_kSY2J-n-48" value="+ найтиДанные(запрос): данныеБД" style="text;strokeColor=none;fillColor=none;align=left;verticalAlign=top;spacingLeft=4;spacingRight=4;overflow=hidden;rotatable=0;points=[[0,0.5],[1,0.5]];portConstraint=eastwest;whiteSpace=wrap;html=1;" vertex="1" parent="omrHkK5Tw3gK_kSY2J-n-44">
          <mxGeometry y="48" width="300" height="26" as="geometry" />
        </mxCell>
        <mxCell id="omrHkK5Tw3gK_kSY2J-n-72" style="edgeStyle=orthogonalEdgeStyle;rounded=0;orthogonalLoop=1;jettySize=auto;html=1;" edge="1" parent="1" source="omrHkK5Tw3gK_kSY2J-n-51" target="omrHkK5Tw3gK_kSY2J-n-22">
          <mxGeometry relative="1" as="geometry" />
        </mxCell>
        <mxCell id="omrHkK5Tw3gK_kSY2J-n-51" value="Формирование информации для вывода" style="swimlane;fontStyle=1;align=center;verticalAlign=top;childLayout=stackLayout;horizontal=1;startSize=40;horizontalStack=0;resizeParent=1;resizeParentMax=0;resizeLast=0;collapsible=1;marginBottom=0;whiteSpace=wrap;html=1;" vertex="1" parent="1">
          <mxGeometry x="680" y="344" width="350" height="130" as="geometry" />
        </mxCell>
        <mxCell id="omrHkK5Tw3gK_kSY2J-n-54" value="" style="line;strokeWidth=1;fillColor=none;align=left;verticalAlign=middle;spacingTop=-1;spacingLeft=3;spacingRight=3;rotatable=0;labelPosition=right;points=[];portConstraint=eastwest;strokeColor=inherit;" vertex="1" parent="omrHkK5Tw3gK_kSY2J-n-51">
          <mxGeometry y="40" width="350" height="8" as="geometry" />
        </mxCell>
        <mxCell id="omrHkK5Tw3gK_kSY2J-n-55" value="+ сформироватьИнфДляВывода(предсказание): информацияДляВывода" style="text;strokeColor=none;fillColor=none;align=left;verticalAlign=top;spacingLeft=4;spacingRight=4;overflow=hidden;rotatable=0;points=[[0,0.5],[1,0.5]];portConstraint=eastwest;whiteSpace=wrap;html=1;" vertex="1" parent="omrHkK5Tw3gK_kSY2J-n-51">
          <mxGeometry y="48" width="350" height="82" as="geometry" />
        </mxCell>
        <mxCell id="omrHkK5Tw3gK_kSY2J-n-71" style="edgeStyle=orthogonalEdgeStyle;rounded=0;orthogonalLoop=1;jettySize=auto;html=1;" edge="1" parent="1" source="omrHkK5Tw3gK_kSY2J-n-61" target="omrHkK5Tw3gK_kSY2J-n-51">
          <mxGeometry relative="1" as="geometry" />
        </mxCell>
        <mxCell id="omrHkK5Tw3gK_kSY2J-n-61" value="Интерфейс отображения результата" style="swimlane;fontStyle=1;align=center;verticalAlign=top;childLayout=stackLayout;horizontal=1;startSize=40;horizontalStack=0;resizeParent=1;resizeParentMax=0;resizeLast=0;collapsible=1;marginBottom=0;whiteSpace=wrap;html=1;" vertex="1" parent="1">
          <mxGeometry x="725" y="170" width="260" height="74" as="geometry" />
        </mxCell>
        <mxCell id="omrHkK5Tw3gK_kSY2J-n-63" value="" style="line;strokeWidth=1;fillColor=none;align=left;verticalAlign=middle;spacingTop=-1;spacingLeft=3;spacingRight=3;rotatable=0;labelPosition=right;points=[];portConstraint=eastwest;strokeColor=inherit;" vertex="1" parent="omrHkK5Tw3gK_kSY2J-n-61">
          <mxGeometry y="40" width="260" height="8" as="geometry" />
        </mxCell>
        <mxCell id="omrHkK5Tw3gK_kSY2J-n-64" value="+ показать(информацияДляВывода): void" style="text;strokeColor=none;fillColor=none;align=left;verticalAlign=top;spacingLeft=4;spacingRight=4;overflow=hidden;rotatable=0;points=[[0,0.5],[1,0.5]];portConstraint=eastwest;whiteSpace=wrap;html=1;" vertex="1" parent="omrHkK5Tw3gK_kSY2J-n-61">
          <mxGeometry y="48" width="260" height="26" as="geometry" />
        </mxCell>
      </root>
    </mxGraphModel>
  </diagram>
</mxfile>
